<?xml version="1.0" encoding="utf-8"?>
<!-- Generator: Adobe Illustrator 23.1.0, SVG Export Plug-In . SVG Version: 6.00 Build 0)  -->
<svg version="1.1" xmlns="http://www.w3.org/2000/svg" xmlns:xlink="http://www.w3.org/1999/xlink" x="0px" y="0px"
	 viewBox="0 0 595.3 841.9" style="enable-background:new 0 0 595.3 841.9;" xml:space="preserve">
<style type="text/css">
	.st0{display:none;}
	.st1{fill:#DCDCDC;}
	.st2{fill:none;stroke:#949494;stroke-width:0.4252;stroke-linecap:round;stroke-linejoin:round;stroke-miterlimit:10;}
	.st3{fill:#A4A3A1;}
</style>
<g id="Capa_1" class="st0">
	
		<image style="display:inline;overflow:visible;" width="673" height="471" xlink:href="56692029.png"  transform="matrix(-0.6347 0 0 0.6347 511.091 271.9078)">
	</image>
</g>
<g id="_x2B__1_">
	<polygon class="st1" points="175.4,507.1 178.1,520 188.8,528.9 202.7,538.8 215.5,542 243.4,549.2 242.3,569.9 248.9,569.9 
		252.2,561.8 273.6,545.5 283.7,546.4 291.4,538.7 291.4,533 299.5,525.9 291.4,521.6 272.9,521.2 266.7,518 257.9,514.1 
		242.3,508.5 231.5,508.5 224.1,512.4 	"/>
</g>
<g id="_x2B_">
	<polygon class="st2" points="260,387.6 262.6,452.2 311.6,391.4 	"/>
	<polygon class="st2" points="153.1,429.1 231.5,417.2 219.6,444.7 	"/>
	<polygon class="st2" points="184.9,381.9 187.6,449.4 219.6,444.7 	"/>
	<polygon class="st2" points="252.2,334.1 231.5,417.2 260,387.6 	"/>
	<polygon class="st2" points="465.4,335.4 457.6,418.1 430.4,334.1 	"/>
	<polygon class="st2" points="301.3,425.5 279.6,483.5 315.4,458.4 	"/>
	<polygon class="st2" points="273.6,545.5 291.4,533 291.4,538.7 283.7,546.4 	"/>
	<polygon class="st2" points="291.4,507.1 303.9,522.2 291.4,533 	"/>
	<polygon class="st2" points="325.8,517.7 325.8,533 303.9,522.2 291.4,507.1 	"/>
</g>
<g id="Capa_2">
	<polygon class="st2" points="243.4,468.5 187.6,449.4 175.4,507.1 	"/>
	<polygon class="st2" points="272.1,283.9 311.3,282.4 328.2,285.2 284.4,295.7 	"/>
	<polygon class="st2" points="382.7,298.1 392.2,289 354.1,283.8 328.2,285.2 	"/>
	<polygon class="st2" points="351.7,311.5 328.2,285.2 382.7,298.1 	"/>
	<polygon class="st2" points="308.6,325.5 284.4,295.7 328.2,285.2 	"/>
	<polygon class="st2" points="351.7,311.5 328.2,285.2 308.6,325.5 	"/>
	<polygon class="st2" points="392.2,289 410.7,307.5 441.8,313.5 417,298.4 	"/>
	<polygon class="st2" points="430.4,334.1 441.8,313.5 410.7,307.5 	"/>
	<polygon class="st2" points="377.5,318.4 410.7,307.5 430.4,334.1 	"/>
	<polygon class="st2" points="382.7,298.1 377.5,318.4 410.7,307.5 	"/>
	<polygon class="st2" points="465.4,335.4 430.4,334.1 494.8,378.2 	"/>
	<polygon class="st2" points="457.6,418.1 494.8,378.2 476.2,470 	"/>
	<polygon class="st2" points="423.8,475.7 476.2,470 457.6,418.1 	"/>
	<polygon class="st2" points="401,355.8 457.6,418.1 417.9,395 	"/>
	<polygon class="st2" points="252.2,561.8 273.6,545.5 262.6,528.9 	"/>
	<polygon class="st2" points="423.8,499.1 402.7,472.3 423.8,475.7 419,479.4 420,485.7 423.1,493.9 	"/>
	<polygon class="st2" points="367.8,349.8 430.4,334.1 401,355.8 	"/>
	<polygon class="st2" points="377.5,318.4 367.8,349.8 430.4,334.1 	"/>
	<polygon class="st2" points="351.7,311.5 367.8,349.8 377.5,318.4 	"/>
	<polygon class="st2" points="465.4,335.4 494.8,378.2 485.5,353.8 478.9,344.1 	"/>
	<polygon class="st2" points="504.2,427.3 457.6,418.1 476.2,470 	"/>
	<polygon class="st2" points="494.8,378.2 496.7,388.5 501.6,399.5 504.2,416.7 504.2,427.3 457.6,418.1 	"/>
	<polygon class="st2" points="423.8,475.7 437.8,479.3 444.7,479.3 451.9,477.5 466.2,475.7 476.2,470 	"/>
	<polygon class="st2" points="252.2,334.1 308.6,325.5 262.3,305.4 	"/>
	<polygon class="st2" points="272.1,283.9 284.4,295.7 262.3,305.4 	"/>
	<polygon class="st2" points="236.5,298.4 262.3,305.4 252.2,334.1 	"/>
	<polygon class="st2" points="219.6,342.4 252.2,334.1 236.5,298.4 	"/>
	<polygon class="st2" points="184.9,329.9 231.4,307.4 199.4,311.5 	"/>
	<polygon class="st2" points="165.8,320.4 180.4,332.1 169.3,357.3 	"/>
	<polygon class="st2" points="187.5,332.5 219.6,342.4 184.9,381.9 	"/>
	<polygon class="st2" points="175.4,507.1 243.4,468.5 224.1,512.4 	"/>
	<polygon class="st2" points="215.5,542 224.1,512.4 175.4,507.1 	"/>
	<polygon class="st2" points="243.4,549.2 224.1,512.4 215.5,542 	"/>
	<polygon class="st2" points="262.6,452.2 243.4,468.5 279.6,483.5 	"/>
	<polygon class="st2" points="243.4,549.2 273.6,545.5 252.2,561.8 248.9,569.9 242.3,569.9 	"/>
	<polygon class="st2" points="175.4,507.1 188.8,528.9 202.7,538.8 215.5,542 	"/>
	<polygon class="st2" points="145.2,483.2 147.5,492.8 155.9,501.2 167.3,504 175.4,507.1 	"/>
	<polygon class="st2" points="188.8,528.9 178.1,520 175.4,507.1 	"/>
	<polygon class="st2" points="153.1,429.1 138.5,454.4 138.5,424.7 	"/>
	<polygon class="st2" points="153.1,429.1 175.4,507.1 187.6,449.4 	"/>
	<polygon class="st2" points="219.6,444.7 224.1,512.4 243.4,468.5 	"/>
	<polygon class="st2" points="153.1,429.1 219.6,444.7 187.6,449.4 	"/>
	<polygon class="st2" points="224.1,375.9 231.5,417.2 184.9,381.9 	"/>
	<polygon class="st2" points="138.5,424.7 184.9,381.9 153.1,429.1 	"/>
	<polygon class="st2" points="153.1,393.5 184.9,381.9 138.5,424.7 	"/>
	<polygon class="st2" points="168.8,370.4 184.9,381.9 153.1,393.5 154.8,381.9 161.7,373.3 	"/>
	<polygon class="st2" points="219.6,342.4 168.8,370.4 184.9,381.9 	"/>
	<polygon class="st2" points="174.8,354.1 168.8,370.4 219.6,342.4 	"/>
	<polygon class="st2" points="95.6,384.4 103.8,384.4 121.9,362.2 	"/>
	<polygon class="st2" points="124.7,396.5 129.8,391.4 127.2,412 	"/>
	<polygon class="st2" points="123.2,393.5 120.6,388 101.4,385.7 	"/>
	<polygon class="st2" points="129.8,353.7 145.8,362.2 142.1,352.2 	"/>
	<polygon class="st2" points="147.9,373.3 165.8,363.8 173.1,366.1 	"/>
	<polygon class="st2" points="114.9,323.4 101.4,326.8 93.6,352.2 	"/>
	<polygon class="st2" points="144.5,329.9 108.8,337.8 127.2,341.2 	"/>
	<polygon class="st2" points="124.7,318.7 133.3,298.4 126.6,302.2 	"/>
	<polygon class="st2" points="164.1,279.2 164.1,298.4 180.4,301.4 	"/>
	<polygon class="st2" points="148,298.4 164.1,301.4 165.8,308.5 	"/>
	<polygon class="st2" points="203.1,292.9 212.1,289.1 200.5,309.9 	"/>
	<polygon class="st2" points="187.5,332.5 239.2,319.7 219.6,342.4 	"/>
	<polygon class="st2" points="219.6,342.4 262.3,305.4 252.2,334.1 	"/>
	<polygon class="st2" points="311.6,391.4 306.3,363.8 275.2,370.4 	"/>
	<polygon class="st2" points="343.5,376.1 306.3,363.8 311.6,391.4 	"/>
	<polygon class="st2" points="308.6,325.5 306.3,363.8 343.5,376.1 	"/>
	<polygon class="st2" points="351.7,311.5 346.8,347.9 308.6,325.5 	"/>
	<polygon class="st2" points="367.8,349.8 343.5,376.1 346.8,347.9 	"/>
	<polygon class="st2" points="252.2,334.1 346.8,347.9 308.6,325.5 	"/>
	<polygon class="st2" points="355.5,399.1 382.7,387 343.5,376.1 	"/>
	<polygon class="st2" points="401,355.8 367.8,349.8 382.7,387 	"/>
	<polygon class="st2" points="385.6,427.3 417.9,395 389.4,404.7 	"/>
	<polygon class="st2" points="361.2,429.1 385.6,427.3 389.4,404.7 	"/>
	<polygon class="st2" points="339.8,395 301.3,425.5 311.6,391.4 	"/>
	<polygon class="st2" points="361.2,429.1 325.8,437.4 339.8,395 	"/>
	<polygon class="st2" points="382.7,461.1 385.6,427.3 402.7,472.3 	"/>
	<polygon class="st2" points="417.9,395 402.7,472.3 385.6,427.3 	"/>
	<polygon class="st2" points="457.6,418.1 385.6,427.3 417.9,395 	"/>
	<polygon class="st2" points="494.8,378.2 417.9,395 430.4,334.1 	"/>
	<polygon class="st2" points="339.8,395 343.5,376.1 355.5,399.1 	"/>
	<polygon class="st2" points="275.2,370.4 219.6,342.4 260,387.6 	"/>
	<polygon class="st2" points="219.6,342.4 224.1,375.9 275.2,370.4 	"/>
	<polygon class="st2" points="187.5,332.5 224.1,375.9 219.6,342.4 	"/>
	<polygon class="st2" points="382.7,387 389.4,404.7 361.2,429.1 	"/>
	<polygon class="st2" points="224.1,512.4 273.6,545.5 262.6,528.9 	"/>
	<polygon class="st2" points="262.6,528.9 243.4,468.5 279.6,483.5 	"/>
</g>
<g id="Capa_3">
	<polygon class="st2" points="219.6,444.7 243.4,468.5 187.6,449.4 	"/>
	<polygon class="st2" points="328.1,505.7 279.6,483.5 315.4,458.4 	"/>
	<polygon class="st2" points="284.4,295.7 275.2,370.4 308.6,325.5 	"/>
	<polygon class="st2" points="441.8,313.5 430.4,334.1 465.4,335.4 	"/>
	<polygon class="st2" points="262.6,528.9 291.4,533 291.4,507.1 	"/>
	<polygon class="st2" points="279.6,483.5 224.1,512.4 243.4,468.5 	"/>
	<polygon class="st2" points="219.6,444.7 231.5,417.2 184.9,381.9 	"/>
	<polygon class="st2" points="153.1,429.1 184.9,381.9 224.1,375.9 	"/>
	<polygon class="st2" points="355.5,399.1 389.4,404.7 361.2,429.1 	"/>
	<polygon class="st2" points="262.6,452.2 301.3,425.5 315.4,458.4 	"/>
	<polygon class="st2" points="260,387.6 231.5,417.2 301.3,425.5 	"/>
	<polygon class="st2" points="382.7,298.1 284.4,295.7 351.7,311.5 	"/>
	<polygon class="st2" points="153.1,478.6 187.6,449.4 175.4,507.1 	"/>
	<polygon class="st2" points="145.2,483.2 153.1,478.6 175.4,507.1 	"/>
	<polygon class="st2" points="417.9,395 423.8,475.7 457.6,418.1 	"/>
	<polygon class="st2" points="291.4,507.1 325.8,517.7 328.1,505.7 	"/>
	<polygon class="st2" points="402.7,472.3 408.9,528.9 358.1,525.9 	"/>
	<polygon class="st2" points="153.1,429.1 187.6,449.4 153.1,478.6 	"/>
	<polygon class="st2" points="138.5,424.7 153.1,478.6 153.1,429.1 	"/>
	<polygon class="st2" points="138.5,454.4 145.2,483.2 138.5,467.9 	"/>
	<polygon class="st2" points="153.1,478.6 224.1,512.4 187.6,449.4 	"/>
	<polygon class="st2" points="275.2,370.4 308.6,325.5 252.2,334.1 	"/>
	<polygon class="st2" points="377.5,318.4 351.7,311.5 346.8,347.9 	"/>
	<polygon class="st2" points="417.9,395 382.7,387 401,355.8 	"/>
	<polygon class="st2" points="311.6,391.4 301.3,425.5 260,387.6 	"/>
	<polygon class="st2" points="231.5,417.2 262.6,452.2 219.6,444.7 	"/>
	<polygon class="st2" points="430.4,334.1 401,355.8 457.6,418.1 	"/>
	<polygon class="st2" points="328.1,505.7 325.8,517.7 358.1,525.9 402.7,472.3 	"/>
	<polygon class="st2" points="325.8,533 325.8,517.7 358.1,525.9 	"/>
	<polygon class="st2" points="362,542 358.1,525.9 325.8,533 	"/>
	<polygon class="st2" points="408.9,528.9 358.1,525.9 362,542 371.2,540.2 378.2,536.2 389.9,534 	"/>
	<polygon class="st2" points="476.2,470 504.2,427.3 500.7,435.3 500,441.5 494.8,448.7 494.8,453.4 488.1,460.1 485.4,466.6 	"/>
	<polygon class="st2" points="358.1,525.9 423.8,499.1 389.4,482 	"/>
	<polygon class="st2" points="408.9,528.9 413.2,522.5 413.2,512.4 421.2,507.1 423.8,499.1 358.1,525.9 	"/>
	<polygon class="st2" points="333.4,461.1 358.1,525.9 389.4,482 	"/>
	<polygon class="st2" points="476.2,470 385.6,427.3 417.9,395 	"/>
	<polygon class="st2" points="401,355.8 494.8,378.2 465.4,335.4 	"/>
	<polygon class="st2" points="315.4,458.4 262.6,452.2 279.6,483.5 	"/>
	<polygon class="st2" points="325.8,437.4 301.3,425.5 315.4,458.4 	"/>
	<polygon class="st2" points="325.8,437.4 382.7,461.1 361.2,429.1 	"/>
	<polygon class="st2" points="315.4,458.4 333.4,461.1 325.8,437.4 	"/>
	<polygon class="st2" points="328.1,505.7 333.4,461.1 315.4,458.4 	"/>
	<polygon class="st2" points="382.7,461.1 333.4,461.1 389.4,482 	"/>
	<polygon class="st2" points="291.4,507.1 315.4,458.4 328.1,505.7 	"/>
</g>
<g id="Capa_6">
	<circle class="st3" cx="90.7" cy="297.7" r="2.9"/>
	<circle class="st3" cx="137.3" cy="301.4" r="2"/>
	<circle class="st3" cx="158.7" cy="304.5" r="2.9"/>
	<circle class="st3" cx="174" cy="289.1" r="3.1"/>
	<circle class="st3" cx="196.2" cy="283.1" r="2.1"/>
	<circle class="st3" cx="129.8" cy="380" r="1.9"/>
	<circle class="st3" cx="168.8" cy="370.4" r="2.9"/>
	<circle class="st3" cx="182.4" cy="368.5" r="1.8"/>
	<circle class="st3" cx="205.1" cy="370.4" r="1.9"/>
	<circle class="st3" cx="260" cy="387.6" r="2.6"/>
	<circle class="st3" cx="275.2" cy="370.4" r="1.9"/>
	<circle class="st3" cx="306.3" cy="363.8" r="2.9"/>
	<circle class="st3" cx="243.4" cy="468.5" r="2.4"/>
	<circle class="st3" cx="219.6" cy="444.7" r="2"/>
	<circle class="st3" cx="187.6" cy="449.4" r="2.8"/>
	<circle class="st3" cx="164.5" cy="469" r="2.6"/>
	<circle class="st3" cx="153.1" cy="478.6" r="2.3"/>
	<circle class="st3" cx="164.5" cy="446.7" r="2.5"/>
	<circle class="st3" cx="358.1" cy="525.9" r="3"/>
	<circle class="st3" cx="400.4" cy="499.1" r="2.3"/>
	<circle class="st3" cx="402.7" cy="472.3" r="3.4"/>
	<circle class="st3" cx="423.8" cy="475.7" r="2.2"/>
	<circle class="st3" cx="476.2" cy="470" r="2.3"/>
	<circle class="st3" cx="504.2" cy="427.3" r="1.8"/>
	<circle class="st3" cx="457.6" cy="418.1" r="1.9"/>
	<circle class="st3" cx="455.8" cy="380.5" r="1.9"/>
	<circle class="st3" cx="494.8" cy="378.2" r="2.2"/>
	<circle class="st3" cx="351.7" cy="311.5" r="1.7"/>
	<circle class="st3" cx="382.7" cy="298.1" r="1.2"/>
	<circle class="st3" cx="392.2" cy="289" r="1.4"/>
	<circle class="st3" cx="322.8" cy="307.5" r="2.1"/>
	<circle class="st3" cx="333.5" cy="305.4" r="1.6"/>
	<circle class="st3" cx="340.8" cy="290.4" r="2"/>
	<circle class="st3" cx="311.1" cy="299.3" r="1.5"/>
	<circle class="st3" cx="305.8" cy="307" r="2.8"/>
	<circle class="st3" cx="343.5" cy="329.7" r="2"/>
	<circle class="st3" cx="317" cy="353.4" r="1.5"/>
	<circle class="st3" cx="297.6" cy="345" r="1.9"/>
	<circle class="st3" cx="296.5" cy="356.8" r="1.2"/>
	<circle class="st3" cx="311.6" cy="334.8" r="1.9"/>
	<circle class="st3" cx="324.9" cy="329.7" r="1.1"/>
	<circle class="st3" cx="289" cy="495.3" r="2.4"/>
	<circle class="st3" cx="289.8" cy="478.5" r="2.4"/>
	<circle class="st3" cx="301.3" cy="458.4" r="1.7"/>
	<circle class="st3" cx="307.6" cy="461.1" r="1.7"/>
	<circle class="st3" cx="305.9" cy="482.7" r="1.7"/>
	<circle class="st3" cx="321.6" cy="498.7" r="1.9"/>
	<circle class="st3" cx="328.1" cy="505.7" r="1.9"/>
	<circle class="st3" cx="342" cy="493.7" r="1.9"/>
	<circle class="st3" cx="325.8" cy="517.7" r="2.3"/>
	<circle class="st3" cx="244.1" cy="443.2" r="2"/>
	<circle class="st3" cx="248.2" cy="449.4" r="2"/>
	<circle class="st3" cx="255" cy="456.6" r="2"/>
	<circle class="st3" cx="267.4" cy="472.9" r="2"/>
	<circle class="st3" cx="261.9" cy="468.2" r="1.4"/>
	<circle class="st3" cx="257" cy="461.2" r="1.4"/>
	<circle class="st3" cx="248.5" cy="456.6" r="1.4"/>
	<circle class="st3" cx="245.8" cy="433.3" r="2"/>
	<circle class="st3" cx="220.7" cy="424.8" r="2.4"/>
	<circle class="st3" cx="268.8" cy="423.7" r="2.4"/>
	<circle class="st3" cx="277.3" cy="416.2" r="2.4"/>
	<circle class="st3" cx="280.9" cy="423.7" r="2.4"/>
	<circle class="st3" cx="273.5" cy="431.3" r="1.7"/>
	<circle class="st3" cx="269.5" cy="433.3" r="1.2"/>
	<circle class="st3" cx="280.9" cy="434.7" r="1.2"/>
	<circle class="st3" cx="211.2" cy="480.9" r="2.3"/>
	<circle class="st3" cx="183.5" cy="469" r="2.6"/>
	<circle class="st3" cx="193.9" cy="464.4" r="2.5"/>
	<circle class="st3" cx="187.6" cy="457.3" r="0.9"/>
	<circle class="st3" cx="161.9" cy="453" r="1.9"/>
	<circle class="st3" cx="243.4" cy="494.1" r="1.5"/>
	<circle class="st3" cx="229.5" cy="538.7" r="2.5"/>
	<circle class="st3" cx="209.4" cy="516.2" r="4"/>
	<circle class="st3" cx="187.6" cy="529.6" r="1.2"/>
	<circle class="st3" cx="215.5" cy="542" r="2.3"/>
	<circle class="st3" cx="251.9" cy="539.7" r="2.3"/>
	<circle class="st3" cx="243.4" cy="549.2" r="2.9"/>
	<circle class="st3" cx="273.6" cy="545.5" r="2.5"/>
	<circle class="st3" cx="252.2" cy="561.8" r="2.6"/>
	<circle class="st3" cx="262.6" cy="528.9" r="1.9"/>
	<circle class="st3" cx="313" cy="519.9" r="2.4"/>
	<circle class="st3" cx="291.4" cy="507.1" r="2.3"/>
	<circle class="st3" cx="263.3" cy="511.7" r="2.1"/>
	<circle class="st3" cx="271.1" cy="497.7" r="2.3"/>
	<circle class="st3" cx="252.2" cy="489.9" r="1.9"/>
	<circle class="st3" cx="271.1" cy="490.4" r="1.4"/>
	<circle class="st3" cx="318.4" cy="399.1" r="1.4"/>
	<circle class="st3" cx="304.8" cy="404.7" r="1.5"/>
	<circle class="st3" cx="323.3" cy="426.1" r="1.9"/>
	<circle class="st3" cx="355.5" cy="399.1" r="1.8"/>
	<circle class="st3" cx="430.4" cy="334.1" r="3.8"/>
	<circle class="st3" cx="465.4" cy="335.4" r="2.6"/>
	<circle class="st3" cx="401" cy="355.8" r="3"/>
	<circle class="st3" cx="449.6" cy="343.4" r="4.2"/>
	<circle class="st3" cx="455.8" cy="355.8" r="1.9"/>
	<circle class="st3" cx="421.6" cy="352.9" r="2"/>
	<circle class="st3" cx="433.2" cy="347.9" r="1.9"/>
	<circle class="st3" cx="421.6" cy="371.5" r="3.9"/>
	<circle class="st3" cx="439.6" cy="369.9" r="2.1"/>
	<circle class="st3" cx="457.6" cy="374" r="2"/>
	<circle class="st3" cx="390.1" cy="298.1" r="2.3"/>
	<circle class="st3" cx="409.1" cy="313.3" r="1.6"/>
	<circle class="st3" cx="377.5" cy="318.4" r="2.7"/>
	<circle class="st3" cx="367.8" cy="349.8" r="2.1"/>
	<circle class="st3" cx="351.7" cy="361.2" r="1.3"/>
	<circle class="st3" cx="378.8" cy="338.9" r="1.1"/>
	<circle class="st3" cx="346.8" cy="347.9" r="1.9"/>
	<circle class="st3" cx="431.3" cy="324.4" r="1.9"/>
	<circle class="st3" cx="415.4" cy="323.7" r="1.6"/>
	<circle class="st3" cx="418.4" cy="328.3" r="0.5"/>
	<circle class="st3" cx="441.8" cy="313.5" r="1.9"/>
	<circle class="st3" cx="451.9" cy="462.3" r="2.3"/>
	<circle class="st3" cx="452.9" cy="450.6" r="1.8"/>
	<circle class="st3" cx="457.6" cy="451.9" r="2.2"/>
	<circle class="st3" cx="438.3" cy="445.2" r="1.7"/>
	<circle class="st3" cx="429.1" cy="443.4" r="1.9"/>
	<circle class="st3" cx="409.5" cy="414.7" r="2.2"/>
	<circle class="st3" cx="427.9" cy="420" r="1.7"/>
	<circle class="st3" cx="422.4" cy="424.1" r="1.7"/>
	<circle class="st3" cx="437.8" cy="416.2" r="1.9"/>
	<circle class="st3" cx="437.8" cy="428.4" r="1.9"/>
	<circle class="st3" cx="430.9" cy="404.2" r="2"/>
	<circle class="st3" cx="417.9" cy="395" r="2.7"/>
	<circle class="st3" cx="389.4" cy="404.7" r="1.9"/>
	<circle class="st3" cx="382.7" cy="387" r="2.9"/>
	<circle class="st3" cx="361.2" cy="429.1" r="3.1"/>
	<circle class="st3" cx="347.6" cy="437.4" r="1.8"/>
	<circle class="st3" cx="361.2" cy="445.3" r="1.6"/>
	<circle class="st3" cx="361.4" cy="449.8" r="2.1"/>
	<circle class="st3" cx="379.8" cy="445.1" r="2.3"/>
	<circle class="st3" cx="339.8" cy="422.4" r="1.7"/>
	<circle class="st3" cx="333.4" cy="461.1" r="4.1"/>
	<circle class="st3" cx="315.4" cy="458.4" r="1.7"/>
	<circle class="st3" cx="357" cy="463.9" r="2"/>
	<circle class="st3" cx="367.1" cy="458.4" r="1"/>
	<circle class="st3" cx="366" cy="473.7" r="1.5"/>
	<circle class="st3" cx="252.2" cy="334.1" r="1.8"/>
	<circle class="st3" cx="261.5" cy="341" r="1.4"/>
	<circle class="st3" cx="273.3" cy="334.7" r="2"/>
	<circle class="st3" cx="287.6" cy="342.4" r="1.5"/>
	<circle class="st3" cx="246.5" cy="368.4" r="2.9"/>
	<circle class="st3" cx="257.9" cy="359.2" r="1.7"/>
	<circle class="st3" cx="243.6" cy="346.9" r="2.1"/>
	<circle class="st3" cx="219.6" cy="342.4" r="3.2"/>
	<circle class="st3" cx="224.1" cy="375.9" r="1.7"/>
	<circle class="st3" cx="243.6" cy="379" r="2.1"/>
	<circle class="st3" cx="219.6" cy="403.3" r="2.8"/>
	<circle class="st3" cx="240.9" cy="400.5" r="2"/>
	<circle class="st3" cx="222.4" cy="394.3" r="2.2"/>
	<circle class="st3" cx="207" cy="381.9" r="1.3"/>
	<circle class="st3" cx="180.9" cy="429.6" r="1.6"/>
	<circle class="st3" cx="190.5" cy="425.5" r="1.7"/>
	<circle class="st3" cx="206.2" cy="432.2" r="1.4"/>
	<circle class="st3" cx="231.5" cy="440.4" r="2.7"/>
	<circle class="st3" cx="229.9" cy="461.2" r="1.6"/>
	<circle class="st3" cx="205.1" cy="323.4" r="1.2"/>
	<circle class="st3" cx="207" cy="303.4" r="1.9"/>
	<circle class="st3" cx="187.5" cy="332.5" r="2.2"/>
	<circle class="st3" cx="174" cy="334.7" r="2"/>
	<circle class="st3" cx="284.4" cy="295.7" r="1.6"/>
	<circle class="st3" cx="272.1" cy="283.9" r="2.4"/>
	<circle class="st3" cx="287.6" cy="281.5" r="1.9"/>
	<circle class="st3" cx="311.3" cy="282.4" r="2.2"/>
	<circle class="st3" cx="328.2" cy="285.2" r="1.9"/>
	<circle class="st3" cx="268.3" cy="316.6" r="1.5"/>
	<circle class="st3" cx="272.6" cy="311" r="1.4"/>
	<circle class="st3" cx="311.6" cy="391.4" r="3.8"/>
	<circle class="st3" cx="497.1" cy="420" r="0.9"/>
	<circle class="st3" cx="506.8" cy="411.2" r="2.4"/>
	<circle class="st3" cx="492.6" cy="395" r="2.3"/>
	<circle class="st3" cx="454.6" cy="402.2" r="2.5"/>
	<circle class="st3" cx="465.4" cy="395" r="2.3"/>
	<circle class="st3" cx="484.6" cy="380.5" r="1.9"/>
	<circle class="st3" cx="490.2" cy="451.9" r="2.2"/>
	<circle class="st3" cx="349.6" cy="520.9" r="1.7"/>
	<circle class="st3" cx="336.5" cy="524.1" r="1.7"/>
	<circle class="st3" cx="340" cy="504" r="1.7"/>
	<circle class="st3" cx="356.3" cy="502.3" r="1"/>
	<circle class="st3" cx="388.1" cy="520.9" r="2.8"/>
	<circle class="st3" cx="403.6" cy="519.2" r="2.2"/>
	<circle class="st3" cx="404.8" cy="513.2" r="1"/>
	<circle class="st3" cx="281.3" cy="524.1" r="1.5"/>
	<circle class="st3" cx="285.2" cy="527.1" r="1.5"/>
	<circle class="st3" cx="260.8" cy="543.1" r="1.9"/>
	<circle class="st3" cx="210" cy="530.8" r="1.7"/>
	<circle class="st3" cx="220.8" cy="534.9" r="0.9"/>
	<circle class="st3" cx="197.8" cy="541.2" r="1.9"/>
	<circle class="st3" cx="153.1" cy="523.5" r="2.4"/>
	<circle class="st3" cx="167.3" cy="534.9" r="0.9"/>
	<circle class="st3" cx="213.2" cy="557.2" r="1"/>
	<circle class="st3" cx="184.9" cy="381.9" r="2.6"/>
	<circle class="st3" cx="175.6" cy="397.9" r="1.8"/>
	<circle class="st3" cx="153.1" cy="393.5" r="2.4"/>
	<circle class="st3" cx="329" cy="338.9" r="1.8"/>
	<circle class="st3" cx="308.6" cy="325.5" r="1.6"/>
</g>
</svg>
