<?xml version="1.0" encoding="utf-8"?>
<!-- Generator: Adobe Illustrator 23.1.0, SVG Export Plug-In . SVG Version: 6.00 Build 0)  -->
<svg version="1.1" xmlns="http://www.w3.org/2000/svg" xmlns:xlink="http://www.w3.org/1999/xlink" x="0px" y="0px"
	 viewBox="0 0 1920 1080" style="enable-background:new 0 0 1920 1080;" xml:space="preserve">
<style type="text/css">
	.st0{display:none;}
	.st1{fill:#DCDCDC;}
	.st2{fill:#C8C8C8;}
	.st3{fill:none;stroke:#949494;stroke-width:0.7653;stroke-linecap:round;stroke-linejoin:round;stroke-miterlimit:10;}
	.st4{fill:#A4A3A1;}
</style>
<g id="Capa_1" class="st0">
	
		<image style="display:inline;overflow:visible;" width="1600" height="1049" xlink:href="BA8FDB1C.png"  transform="matrix(-1 0 0 1 1600 31)">
	</image>
</g>
<g id="Capa_3">
	<path class="st1" d="M663.3,698.6l492.2,2.6l5.6,15.6l-50.7-6.6l-111.4-2.8c0,0-69.3,14.8-80,12.3c-10.7-2.6-94.2-5.5-94.2-5.5
		l-108.2,7.5L642.6,708l-29.1-229.7L584,360.4l11.2-55.7L663.3,698.6z"/>
	<polygon class="st1" points="650.3,314.2 1076.4,388.3 1145.3,660.7 1144.6,619.1 1132.7,577.1 1090.9,393.6 1072.1,373.8 
		1053.6,361.1 973.6,353.1 918.7,347.1 761.4,314.2 	"/>
</g>
<g id="Capa_2">
	<polygon class="st1" points="786,743.2 795.5,743.1 788.8,765.3 782.1,787.3 780,807.9 784.6,822.3 817.2,831.6 837.8,836.9 
		861.5,840.5 901.7,845.2 901.6,852.2 868.6,849.5 836.7,846.7 810.6,842.2 784.5,837.1 771.3,830.3 769.3,814.7 771.1,793.5 
		775.6,774.5 779.2,762.3 	"/>
	<polygon class="st1" points="562.2,273.2 553.7,284.2 554.5,301.6 556.9,315.4 622.5,695.2 627.1,711.4 638.5,726 652.9,734.2 
		667.9,736.7 650.7,745 638.3,742 627.5,736.4 620.1,729 613.7,719 610.1,707.6 542.1,309.2 540.6,297.7 542.5,290.3 547.4,283.8 	
		"/>
	<polygon class="st2" points="1171.2,727.9 1155.3,731.7 667.9,736.7 650.7,745 666.4,744.8 1149,738.6 1154,736.4 	"/>
	<polygon class="st2" points="901.7,845.2 901.6,852.2 918.4,848 969.3,846.7 1004.1,844.7 1045.5,841.5 1045.5,838.1 1014.8,840.2 
		986.8,841.5 975.7,842.1 935.5,843.6 	"/>
</g>
<g id="Capa_4">
	<polygon class="st3" points="774.8,541.2 835.7,447.4 866.4,554.9 	"/>
	<polygon class="st3" points="690.6,444.8 835.7,447.4 774.8,541.2 	"/>
	<polygon class="st3" points="668.1,532.5 690.6,444.8 774.8,541.2 	"/>
	<polygon class="st3" points="697,558.9 774.8,541.2 668.1,532.5 	"/>
	<polygon class="st3" points="647.9,609.5 774.8,541.2 697,558.9 	"/>
	<polygon class="st3" points="727.3,638.6 774.8,541.2 647.9,609.5 	"/>
	<polygon class="st3" points="655.6,653.8 727.3,638.6 647.9,609.5 	"/>
	<polygon class="st3" points="687.2,669 727.3,638.6 655.6,653.8 	"/>
	<polygon class="st3" points="660.8,683.6 687.2,669 655.6,653.8 	"/>
	<polygon class="st3" points="663.3,698.6 687.2,669 660.8,683.6 	"/>
	<polygon class="st3" points="721,698.9 727.3,638.6 687.2,669 	"/>
	<polygon class="st3" points="663.3,698.6 687.2,669 721,698.9 	"/>
	<polygon class="st3" points="866.4,554.9 886.4,649.5 774.8,541.2 	"/>
	<polygon class="st3" points="727.3,638.6 778.8,622 774.8,541.2 	"/>
	<polygon class="st3" points="886.4,649.5 778.8,622 774.8,541.2 	"/>
	<polygon class="st3" points="787.8,673.2 778.8,622 886.4,649.5 	"/>
	<polygon class="st3" points="727.3,638.6 787.8,673.2 778.8,622 	"/>
	<polygon class="st3" points="835.7,447.4 989,573.6 866.4,554.9 	"/>
	<polygon class="st3" points="886.4,649.5 989,573.6 866.4,554.9 	"/>
	<polygon class="st3" points="971.6,674.7 989,573.6 886.4,649.5 	"/>
	<polygon class="st3" points="979.6,463 1042,515.5 989,573.6 	"/>
	<polygon class="st3" points="835.7,447.4 940.1,396.5 979.6,463 	"/>
	<polygon class="st3" points="1038,449.5 979.6,463 1042,515.5 	"/>
	<polygon class="st3" points="995.9,420.6 979.6,463 1038,449.5 	"/>
	<polygon class="st3" points="940.1,396.5 978,371.2 995.9,420.6 	"/>
	<polygon class="st3" points="835.7,447.4 817.5,373.7 685.6,361.1 	"/>
	<polygon class="st3" points="1042,515.5 1103.2,592.8 989,573.6 	"/>
	<polygon class="st3" points="1110.5,651.2 1103.2,592.8 989,573.6 	"/>
	<polygon class="st3" points="1064.5,685.6 1110.5,651.2 989,573.6 	"/>
	<polygon class="st3" points="971.6,674.7 989,573.6 1064.5,685.6 	"/>
	<polygon class="st3" points="1110.5,651.2 1136.8,674.7 1102.3,700.9 	"/>
	<polygon class="st3" points="1064.5,685.6 1029.7,700.5 1102.3,700.9 	"/>
	<polygon class="st3" points="1110.5,651.2 1064.5,685.6 1102.3,700.9 	"/>
	<polygon class="st3" points="971.6,674.7 1064.5,685.6 1029.7,700.5 	"/>
	<polygon class="st3" points="929,700 971.6,674.7 1029.7,700.5 	"/>
	<polygon class="st3" points="886.4,649.5 929,700 895.8,699.8 	"/>
	<polygon class="st3" points="727.3,638.6 721,698.9 787.8,673.2 	"/>
	<polygon class="st3" points="886.4,649.5 853.5,699.6 895.8,699.8 	"/>
	<polygon class="st3" points="787.8,673.2 853.5,699.6 886.4,649.5 	"/>
	<polygon class="st3" points="721,698.9 787.8,673.2 772.4,699.2 	"/>
	<polygon class="st3" points="853.5,699.6 787.8,673.2 791.8,699.3 	"/>
	<polygon class="st3" points="685.6,361.1 690.6,444.8 835.7,447.4 	"/>
	<polygon class="st3" points="817.5,373.7 835.7,447.4 897.3,357.2 	"/>
	<polygon class="st3" points="940.1,396.5 897.3,357.2 932.8,363.3 	"/>
	<polygon class="st3" points="932.8,363.3 940.1,396.5 978,371.2 	"/>
	<polygon class="st3" points="995.9,420.6 1051.1,383.9 1038,449.5 	"/>
	<polygon class="st3" points="1042,515.5 1094.8,461.2 1106.8,508.6 	"/>
	<polygon class="st3" points="1103.2,592.8 1118.8,555.8 1042,515.5 	"/>
	<polygon class="st3" points="1110.5,651.2 1137.8,631.2 1103.2,592.8 	"/>
	<polygon class="st3" points="1124.1,577.1 1103.2,592.8 1130.4,601.7 	"/>
	<polygon class="st3" points="1110.5,651.2 1143,651.5 1136.8,674.7 	"/>
	<polygon class="st3" points="1136.6,701.1 1136.8,674.7 1152.5,689 	"/>
	<polygon class="st3" points="1038,449.5 1094.8,461.2 1076.4,388.3 	"/>
	<polygon class="st3" points="1051.1,383.9 1038,449.5 1076.4,388.3 	"/>
	<polygon class="st3" points="995.9,420.6 978,371.2 1026,379.6 	"/>
	<polygon class="st3" points="782.8,337.3 817.5,373.7 847.5,348.5 	"/>
	<polygon class="st3" points="685.6,361.1 782.8,337.3 817.5,373.7 	"/>
	<polygon class="st3" points="716.5,325.7 685.6,361.1 782.8,337.3 	"/>
	<polygon class="st3" points="661,316.1 685.6,361.1 716.5,325.7 	"/>
	<polygon class="st3" points="648.2,387.1 661,316.1 685.6,361.1 	"/>
	<polygon class="st3" points="595.2,304.6 619.4,333 661,316.1 	"/>
	<polygon class="st3" points="690.6,444.8 648.2,387.1 685.6,361.1 	"/>
	<polygon class="st3" points="606.9,372 615.9,424.5 648.2,387.1 	"/>
	<polygon class="st3" points="619.4,333 648.2,387.1 661,316.1 	"/>
	<polygon class="st3" points="595.2,304.6 606.9,372 619.4,333 	"/>
	<polygon class="st3" points="690.6,444.8 628.2,495.6 620,448.3 	"/>
	<polygon class="st3" points="648.2,387.1 620,448.3 690.6,444.8 	"/>
	<polygon class="st3" points="647.9,609.5 668.1,532.5 697,558.9 	"/>
	<polygon class="st3" points="637.6,549.7 668.1,532.5 628.2,495.6 	"/>
	<polygon class="st3" points="810.3,763.9 815.1,780.6 833.5,765.7 	"/>
	<polygon class="st3" points="851.6,795.8 815.1,780.6 833.5,765.7 	"/>
	<polygon class="st3" points="856.2,762.9 833.5,765.7 851.6,795.8 	"/>
	<polygon class="st3" points="894.3,781.2 880.8,793.1 856.2,762.9 	"/>
	<polygon class="st3" points="851.6,795.8 856.2,762.9 880.8,793.1 	"/>
	<polygon class="st3" points="887.4,751.1 894.3,781.2 856.2,762.9 	"/>
	<polygon class="st3" points="903,741.7 887.4,751.1 897.1,759.8 	"/>
	<polygon class="st3" points="894.3,781.2 897.1,759.8 887.4,751.1 	"/>
	<polygon class="st3" points="851.6,795.8 861.7,813.8 880.8,793.1 	"/>
	<polygon class="st3" points="820.9,805.7 861.7,813.8 851.6,795.8 	"/>
	<polygon class="st3" points="880.8,793.1 887.7,811.1 861.7,813.8 	"/>
	<polygon class="st3" points="896.8,804.6 887.7,811.1 880.8,793.1 	"/>
	<polygon class="st3" points="894.3,781.2 880.8,793.1 896.8,804.6 	"/>
	<polygon class="st3" points="887.7,811.1 888.6,827.2 902.6,816.2 	"/>
	<polygon class="st3" points="896.8,804.6 887.7,811.1 902.6,816.2 	"/>
	<polygon class="st3" points="861.7,813.8 887.7,811.1 888.6,827.2 	"/>
	<polygon class="st3" points="861.5,840.5 861.7,813.8 888.6,827.2 	"/>
	<polygon class="st3" points="837.8,836.9 849.8,825.4 861.5,840.5 	"/>
	<polygon class="st3" points="888.6,827.2 912.7,830.4 902.6,816.2 	"/>
	<polygon class="st3" points="925.8,827.5 912.7,830.4 902.6,816.2 	"/>
	<polygon class="st3" points="957.2,831.3 949.1,836.8 925.8,827.5 	"/>
	<polygon class="st3" points="975.8,838 949.1,836.8 957.2,831.3 	"/>
	<polygon class="st3" points="985.5,833.7 975.8,838 957.2,831.3 	"/>
	<polygon class="st3" points="1004.1,835.4 992.2,838.2 985.5,833.7 	"/>
	<polygon class="st3" points="912.7,830.4 929.4,840.1 925.8,827.5 	"/>
	<polygon class="st3" points="949.1,836.8 929.4,840.1 925.8,827.5 	"/>
	<polygon class="st3" points="912.7,830.4 901.7,845.2 929.4,840.1 	"/>
	<polygon class="st3" points="888.6,827.2 901.7,845.2 912.7,830.4 	"/>
	<polygon class="st3" points="815.1,780.6 820.9,805.7 851.6,795.8 	"/>
	<polygon class="st3" points="782.1,787.3 815.1,780.6 820.9,805.7 	"/>
	<polygon class="st3" points="810.3,763.9 782.1,787.3 815.1,780.6 	"/>
	<polygon class="st3" points="795.5,743.1 788.8,765.3 810.3,763.9 	"/>
	<polygon class="st3" points="782.1,787.3 810.3,763.9 788.8,765.3 	"/>
	<polygon class="st3" points="815.5,742.9 795.5,743.1 810.3,763.9 	"/>
	<polygon class="st3" points="833.5,765.7 826,742.7 815.5,742.9 	"/>
	<polygon class="st3" points="844,742.5 833.5,765.7 856.2,762.9 	"/>
	<polygon class="st3" points="856.4,742.3 856.2,762.9 844,742.5 	"/>
	<polygon class="st3" points="878.2,742.1 856.2,762.9 887.4,751.1 	"/>
	<polygon class="st3" points="861.5,840.5 888.6,827.2 901.7,845.2 	"/>
	<polygon class="st3" points="949.1,836.8 929.4,840.1 935.5,843.6 	"/>
	<polygon class="st3" points="975.8,838 949.1,836.8 975.7,842.1 	"/>
	<polygon class="st3" points="975.8,838 992.2,838.2 986.8,841.5 	"/>
	<polygon class="st3" points="1004.1,835.4 1014.8,840.2 992.2,838.2 	"/>
	<polygon class="st3" points="1045.5,838.1 1004.1,835.4 1014.8,840.2 	"/>
	<polygon class="st3" points="786,743.2 788.8,765.3 795.5,743.1 	"/>
	<polygon class="st3" points="779.2,762.3 788.8,765.3 786,743.2 	"/>
	<polygon class="st3" points="775.6,774.5 788.8,765.3 779.2,762.3 	"/>
	<polygon class="st3" points="771.1,793.5 782.1,787.3 775.6,774.5 	"/>
	<polygon class="st3" points="769.3,814.7 780,807.9 771.1,793.5 	"/>
	<polygon class="st3" points="820.9,805.7 780,807.9 782.1,787.3 	"/>
	<polygon class="st3" points="771.3,830.3 784.6,822.3 769.3,814.7 	"/>
	<polygon class="st3" points="780,807.9 784.6,822.3 820.9,805.7 	"/>
	<polygon class="st3" points="784.5,837.1 771.3,830.3 784.6,822.3 	"/>
	<polygon class="st3" points="820.9,805.7 817.2,831.6 784.6,822.3 	"/>
	<polygon class="st3" points="837.8,836.9 820.9,805.7 817.2,831.6 	"/>
	<polygon class="st3" points="784.5,837.1 810.6,842.2 784.6,822.3 	"/>
	<polygon class="st3" points="817.2,831.6 784.6,822.3 810.6,842.2 	"/>
	<polygon class="st3" points="837.8,836.9 817.2,831.6 836.7,846.7 	"/>
	<polygon class="st3" points="810.6,842.2 817.2,831.6 836.7,846.7 	"/>
	<polygon class="st3" points="837.8,836.9 861.5,840.5 836.7,846.7 	"/>
	<polygon class="st3" points="868.6,849.5 861.5,840.5 836.7,846.7 	"/>
	<polygon class="st3" points="901.7,845.2 861.5,840.5 868.6,849.5 	"/>
	<polygon class="st3" points="901.6,852.2 901.7,845.2 868.6,849.5 	"/>
	<polygon class="st3" points="935.5,843.6 901.7,845.2 901.6,852.2 	"/>
	<polygon class="st3" points="934.9,850.5 935.5,843.6 901.6,852.2 	"/>
	<polygon class="st3" points="975.7,842.1 935.5,843.6 934.9,850.5 	"/>
	<polygon class="st3" points="986.8,841.5 975.7,842.1 985.4,848 	"/>
	<polygon class="st3" points="934.9,850.5 985.4,848 975.7,842.1 	"/>
	<polygon class="st3" points="1014.8,840.2 986.8,841.5 985.4,848 	"/>
	<polygon class="st3" points="1045.5,838.1 1045.5,844.5 1014.8,840.2 	"/>
	<polygon class="st3" points="985.4,848 1015.2,846.4 1014.8,840.2 	"/>
	<polygon class="st3" points="1045.5,844.5 1014.8,840.2 1015.2,846.4 	"/>
	<polygon class="st3" points="861.7,813.8 849.8,825.4 861.5,840.5 	"/>
	<polygon class="st3" points="820.9,805.7 849.8,825.4 861.7,813.8 	"/>
	<polygon class="st3" points="826,742.7 833.5,765.7 844,742.5 	"/>
	<polygon class="st3" points="856.4,742.3 856.2,762.9 878.2,742.1 	"/>
	<polygon class="st3" points="903,741.7 887.4,751.1 878.2,742.1 	"/>
	<polygon class="st3" points="1106.8,508.6 1118.8,555.8 1042,515.5 	"/>
	<polygon class="st3" points="1124.1,577.1 1103.2,592.8 1118.8,555.8 	"/>
	<polygon class="st3" points="1137.8,631.2 1130.4,601.7 1103.2,592.8 	"/>
	<polygon class="st3" points="1143,651.5 1110.5,651.2 1137.8,631.2 	"/>
	<polygon class="st3" points="1152.5,689 1143,651.5 1136.8,674.7 	"/>
	<polygon class="st3" points="1136.6,701.1 1102.3,700.9 1136.8,674.7 	"/>
	<polygon class="st3" points="615.9,424.5 620,448.3 648.2,387.1 	"/>
	<polygon class="st3" points="637.6,549.7 647.9,609.5 668.1,532.5 	"/>
	<polygon class="st3" points="772.4,699.2 791.8,699.3 787.8,673.2 	"/>
	<polygon class="st3" points="1136.6,701.1 1152.5,689 1155.5,701.2 	"/>
	<polygon class="st3" points="847.5,348.5 817.5,373.7 897.3,357.2 	"/>
	<polygon class="st3" points="1026,379.6 1051.1,383.9 995.9,420.6 	"/>
	<polygon class="st3" points="791.8,699.3 817.5,519.6 895.8,699.8 	"/>
	<polygon class="st3" points="847.5,348.5 817.5,519.6 942.1,460.7 	"/>
	<polygon class="st3" points="1049.7,561.1 942.1,460.7 1029.7,700.5 	"/>
	<polygon class="st3" points="620,448.3 754.8,518.3 771.1,359 	"/>
</g>
<g id="Capa_5">
	<polygon class="st3" points="553.7,284.2 574.2,293 562.2,273.2 	"/>
	<polygon class="st3" points="574.4,270.3 574.2,293 562.2,273.2 	"/>
	<polygon class="st3" points="553.7,284.2 554.5,301.6 574.2,293 	"/>
	<polygon class="st3" points="585.6,306.8 574.2,293 556.9,315.4 	"/>
	<polygon class="st3" points="554.5,301.6 556.9,315.4 574.2,293 	"/>
	<polygon class="st3" points="580.8,324.6 556.9,315.4 562.6,348.4 	"/>
	<polygon class="st3" points="587.2,340.7 576.8,368.4 594.8,360.4 	"/>
	<polygon class="st3" points="576.8,368.4 562.6,348.4 587.2,340.7 	"/>
	<polygon class="st3" points="571.1,397.9 576.8,368.4 562.6,348.4 	"/>
	<polygon class="st3" points="590.4,402.9 571.1,397.9 576.8,368.4 	"/>
	<polygon class="st3" points="594.8,360.4 576.8,368.4 590.4,402.9 	"/>
	<polygon class="st3" points="576.8,430.9 590.4,402.9 571.1,397.9 	"/>
	<polygon class="st3" points="594.8,360.4 612.2,403 590.4,402.9 	"/>
	<polygon class="st3" points="601.8,342.6 594.8,360.4 612.2,403 	"/>
	<polygon class="st3" points="576.8,430.9 599.7,438.4 582.9,465.8 	"/>
	<polygon class="st3" points="587,489.5 606,476.2 582.9,465.8 	"/>
	<polygon class="st3" points="602.5,509 606,476.2 587,489.5 	"/>
	<polygon class="st3" points="623.5,468 606,476.2 630.9,510.8 	"/>
	<polygon class="st3" points="602.5,509 630.9,510.8 606,476.2 	"/>
	<polygon class="st3" points="596,541.9 602.5,509 587,489.5 	"/>
	<polygon class="st3" points="590.4,402.9 599.7,438.4 576.8,430.9 	"/>
	<polygon class="st3" points="612.2,403 599.7,438.4 590.4,402.9 	"/>
	<polygon class="st3" points="606,476.2 582.9,465.8 599.7,438.4 	"/>
	<polygon class="st3" points="620,448.3 599.7,438.4 612.2,403 	"/>
	<polygon class="st3" points="606,476.2 620,448.3 599.7,438.4 	"/>
	<polygon class="st3" points="596,541.9 630.9,510.8 602.5,509 	"/>
	<polygon class="st3" points="619.2,549.6 596,541.9 630.9,510.8 	"/>
	<polygon class="st3" points="602,576.2 619.2,549.6 596,541.9 	"/>
	<polygon class="st3" points="630.9,510.8 637.6,549.7 619.2,549.6 	"/>
	<polygon class="st3" points="1141.4,593.1 1150.2,585.5 1157.6,614.6 	"/>
	<polygon class="st3" points="1135.6,622.2 1157.6,614.6 1141.4,593.1 	"/>
	<polygon class="st3" points="1143.2,557.6 1141.4,593.1 1150.2,585.5 	"/>
	<polygon class="st3" points="1135.6,622.2 1127.3,589.5 1141.4,593.1 	"/>
	<polygon class="st3" points="1143.2,557.6 1133.3,558.7 1137.2,534 	"/>
	<polygon class="st3" points="1131.2,510.5 1110.7,524.2 1137.2,534 	"/>
	<polygon class="st3" points="1116.8,497.8 1110.7,524.2 1131.2,510.5 	"/>
	<polygon class="st3" points="1116.8,497.8 1102.7,492.3 1110.7,524.2 	"/>
	<polygon class="st3" points="1123.1,478.3 1116.8,497.8 1131.2,510.5 	"/>
	<polygon class="st3" points="1141.4,593.1 1133.3,558.7 1143.2,557.6 	"/>
	<polygon class="st3" points="1127.3,589.5 1133.3,558.7 1141.4,593.1 	"/>
	<polygon class="st3" points="1110.7,524.2 1137.2,534 1133.3,558.7 	"/>
	<polygon class="st3" points="1116.6,547.4 1133.3,558.7 1127.3,589.5 	"/>
	<polygon class="st3" points="1110.7,524.2 1116.6,547.4 1133.3,558.7 	"/>
	<polygon class="st3" points="1123.1,478.3 1102.7,492.3 1116.8,497.8 	"/>
	<polygon class="st3" points="1114.4,472 1123.1,478.3 1102.7,492.3 	"/>
	<polygon class="st3" points="1102.7,492.3 1097.2,470.6 1114.4,472 	"/>
	<polygon class="st3" points="602,576.2 619,578.3 624,618.1 	"/>
	<polygon class="st3" points="619.2,549.6 619,578.3 602,576.2 	"/>
	<polygon class="st3" points="642.6,578.5 619,578.3 619.2,549.6 	"/>
	<polygon class="st3" points="637.6,549.7 619.2,549.6 642.6,578.5 	"/>
	<polygon class="st3" points="624,618.1 642.6,578.5 619,578.3 	"/>
	<polygon class="st3" points="610.5,625.7 624,618.1 602,576.2 	"/>
	<polygon class="st3" points="642.6,578.5 647.9,609.5 624,618.1 	"/>
	<polygon class="st3" points="1080.8,405.8 1090.9,393.6 1076.4,388.3 	"/>
	<polygon class="st3" points="1090.5,413.9 1090.9,393.6 1080.8,405.8 	"/>
	<polygon class="st3" points="1101,390.9 1090.9,393.6 1107.4,416.3 	"/>
	<polygon class="st3" points="1090.5,413.9 1107.4,416.3 1090.9,393.6 	"/>
	<polygon class="st3" points="1088.3,435.4 1090.5,413.9 1080.8,405.8 	"/>
	<polygon class="st3" points="1088.3,435.4 1107.4,416.3 1090.5,413.9 	"/>
	<polygon class="st3" points="1101.4,438.8 1088.3,435.4 1107.4,416.3 	"/>
	<polygon class="st3" points="1092.6,452.6 1101.4,438.8 1088.3,435.4 	"/>
	<polygon class="st3" points="1107.4,416.3 1113.1,438.9 1101.4,438.8 	"/>
	<polygon class="st3" points="1092.6,452.6 1102.1,449.5 1114.4,472 	"/>
	<polygon class="st3" points="1101.4,438.8 1102.1,449.5 1092.6,452.6 	"/>
	<polygon class="st3" points="1116.8,453.6 1102.1,449.5 1101.4,438.8 	"/>
	<polygon class="st3" points="1113.1,438.9 1101.4,438.8 1116.8,453.6 	"/>
	<polygon class="st3" points="1114.4,472 1116.8,453.6 1102.1,449.5 	"/>
	<polygon class="st3" points="1097.2,470.6 1114.4,472 1092.6,452.6 	"/>
	<polygon class="st3" points="1116.8,453.6 1123.1,478.3 1114.4,472 	"/>
	<polygon class="st3" points="610.5,625.7 636.8,648.2 624,618.1 	"/>
	<polygon class="st3" points="647.9,609.5 624,618.1 636.8,648.2 	"/>
	<polygon class="st3" points="655.6,653.8 636.8,648.2 647.9,609.5 	"/>
	<polygon class="st3" points="615.3,653.1 636.8,648.2 610.5,625.7 	"/>
	<polygon class="st3" points="646.1,668.6 628,671.9 636.8,648.2 	"/>
	<polygon class="st3" points="635.3,698.4 646.1,668.6 628,671.9 	"/>
	<polygon class="st3" points="655.6,653.8 646.1,668.6 660.8,683.6 	"/>
	<polygon class="st3" points="615.3,653.1 628,671.9 636.8,648.2 	"/>
	<polygon class="st3" points="635.3,698.4 622.5,695.2 628,671.9 	"/>
	<polygon class="st3" points="615.3,653.1 622.5,695.2 628,671.9 	"/>
	<polygon class="st3" points="660.8,683.6 635.3,698.4 646.1,668.6 	"/>
	<polygon class="st3" points="627.1,711.4 635.3,698.4 622.5,695.2 	"/>
	<polygon class="st3" points="660.8,683.6 653.2,706.9 635.3,698.4 	"/>
	<polygon class="st3" points="627.1,711.4 645.7,717.1 635.3,698.4 	"/>
	<polygon class="st3" points="638.5,726 645.7,717.1 627.1,711.4 	"/>
	<polygon class="st3" points="653.2,706.9 635.3,698.4 645.7,717.1 	"/>
	<polygon class="st3" points="663.3,698.6 653.2,706.9 660.8,683.6 	"/>
	<polygon class="st3" points="663.3,698.6 683.3,698.7 689.1,714.2 	"/>
	<polygon class="st3" points="653.2,706.9 689.1,714.2 663.3,698.6 	"/>
	<polygon class="st3" points="645.7,717.1 689.1,714.2 653.2,706.9 	"/>
	<polygon class="st3" points="638.5,726 680.1,724.5 645.7,717.1 	"/>
	<polygon class="st3" points="689.1,714.2 645.7,717.1 680.1,724.5 	"/>
	<polygon class="st3" points="638.5,726 652.9,734.2 680.1,724.5 	"/>
	<polygon class="st3" points="667.9,736.7 680.1,724.5 652.9,734.2 	"/>
	<polygon class="st3" points="683.3,698.7 689.1,714.2 715.3,698.9 	"/>
	<polygon class="st3" points="715.3,698.9 725,712.1 689.1,714.2 	"/>
	<polygon class="st3" points="680.1,724.5 701.2,736.3 667.9,736.7 	"/>
	<polygon class="st3" points="715.3,698.9 762.1,712.4 725,712.1 	"/>
	<polygon class="st3" points="762.1,712.4 732.2,724.9 725,712.1 	"/>
	<polygon class="st3" points="715.3,698.9 762.1,712.4 767.4,699.2 	"/>
	<polygon class="st3" points="791.8,699.3 807.3,719.6 767.4,699.2 	"/>
	<polygon class="st3" points="762.1,712.4 807.3,719.6 767.4,699.2 	"/>
	<polygon class="st3" points="766.2,723.5 807.3,719.6 800.7,735.3 	"/>
	<polygon class="st3" points="762.1,712.4 807.3,719.6 766.2,723.5 	"/>
	<polygon class="st3" points="732.2,724.9 766.2,723.5 762.1,712.4 	"/>
	<polygon class="st3" points="751.8,735.8 766.2,723.5 800.7,735.3 	"/>
	<polygon class="st3" points="701.2,736.3 732.2,724.9 751.8,735.8 	"/>
	<polygon class="st3" points="766.2,723.5 732.2,724.9 751.8,735.8 	"/>
	<polygon class="st3" points="791.8,699.3 807.3,719.6 824.9,699.5 	"/>
	<polygon class="st3" points="840.9,718.6 807.3,719.6 800.7,735.3 	"/>
	<polygon class="st3" points="842.7,734.9 840.9,718.6 800.7,735.3 	"/>
	<polygon class="st3" points="824.9,699.5 853.5,699.6 840.9,718.6 	"/>
	<polygon class="st3" points="807.3,719.6 824.9,699.5 840.9,718.6 	"/>
	<polygon class="st3" points="853.5,699.6 875.7,717.3 872.3,699.7 	"/>
	<polygon class="st3" points="840.9,718.6 853.5,699.6 875.7,717.3 	"/>
	<polygon class="st3" points="842.7,734.9 865,734.7 840.9,718.6 	"/>
	<polygon class="st3" points="875.7,717.3 865,734.7 840.9,718.6 	"/>
	<polygon class="st3" points="895.8,699.8 872.3,699.7 875.7,717.3 	"/>
	<polygon class="st3" points="891.9,723.1 875.7,717.3 865,734.7 	"/>
	<polygon class="st3" points="891.9,723.1 895.8,699.8 875.7,717.3 	"/>
	<polygon class="st3" points="897.3,734.3 891.9,723.1 865,734.7 	"/>
	<polygon class="st3" points="689.1,714.2 701.2,736.3 680.1,724.5 	"/>
	<polygon class="st3" points="725,712.1 701.2,736.3 732.2,724.9 	"/>
	<polygon class="st3" points="689.1,714.2 725,712.1 701.2,736.3 	"/>
	<polygon class="st3" points="895.8,699.8 905,719.1 891.9,723.1 	"/>
	<polygon class="st3" points="928.7,700 905,719.1 895.8,699.8 	"/>
	<polygon class="st3" points="897.3,734.3 905,719.1 891.9,723.1 	"/>
	<polygon class="st3" points="928.7,700 933.2,716.4 905,719.1 	"/>
	<polygon class="st3" points="955.5,723.6 928.7,700 933.2,716.4 	"/>
	<polygon class="st3" points="905,719.1 923.3,734.1 933.2,716.4 	"/>
	<polygon class="st3" points="897.3,734.3 923.3,734.1 905,719.1 	"/>
	<polygon class="st3" points="955.5,723.6 923.3,734.1 933.2,716.4 	"/>
	<polygon class="st3" points="973.2,733.5 955.5,723.6 923.3,734.1 	"/>
	<polygon class="st3" points="928.7,700 955.5,723.6 971.4,700.2 	"/>
	<polygon class="st3" points="971.4,700.2 980.5,710.2 955.5,723.6 	"/>
	<polygon class="st3" points="979.2,721.5 980.5,710.2 955.5,723.6 	"/>
	<polygon class="st3" points="973.2,733.5 979.2,721.5 955.5,723.6 	"/>
	<polygon class="st3" points="1001.9,733.2 973.2,733.5 979.2,721.5 	"/>
	<polygon class="st3" points="980.5,710.2 1001.9,733.2 979.2,721.5 	"/>
	<polygon class="st3" points="971.4,700.2 1003.4,700.4 980.5,710.2 	"/>
	<polygon class="st3" points="1001.9,733.2 1007.8,719.9 980.5,710.2 	"/>
	<polygon class="st3" points="1003.4,700.4 1007.8,719.9 980.5,710.2 	"/>
	<polygon class="st3" points="1007.8,719.9 1003.4,700.4 1029.7,700.5 	"/>
	<polygon class="st3" points="1033.3,717.4 1007.8,719.9 1029.7,700.5 	"/>
	<polygon class="st3" points="1050.5,700.7 1033.3,717.4 1029.7,700.5 	"/>
	<polygon class="st3" points="1001.9,733.2 1007.8,719.9 1033.3,732.9 	"/>
	<polygon class="st3" points="1033.3,717.4 1007.8,719.9 1033.3,732.9 	"/>
	<polygon class="st3" points="1050.5,700.7 1033.3,717.4 1033.3,732.9 	"/>
	<polygon class="st3" points="1057.8,732.7 1061.4,716 1033.3,732.9 	"/>
	<polygon class="st3" points="1050.5,700.7 1061.4,716 1033.3,732.9 	"/>
	<polygon class="st3" points="1050.5,700.7 1061.4,716 1086.3,700.8 	"/>
	<polygon class="st3" points="1057.8,732.7 1089.1,732.3 1061.4,716 	"/>
	<polygon class="st3" points="1086.3,700.8 1092.1,717.9 1061.4,716 	"/>
	<polygon class="st3" points="1089.1,732.3 1092.1,717.9 1061.4,716 	"/>
	<polygon class="st3" points="1117.3,732.1 1089.1,732.3 1103.3,718 	"/>
	<polygon class="st3" points="1092.1,717.9 1103.3,718 1089.1,732.3 	"/>
	<polygon class="st3" points="1086.3,700.8 1103.3,718 1092.1,717.9 	"/>
	<polygon class="st3" points="1102.3,700.9 1103.3,718 1086.3,700.8 	"/>
	<polygon class="st3" points="997.6,374.6 995.9,357.5 1020.9,364.8 	"/>
	<polygon class="st3" points="997.6,374.6 968.5,357.7 995.9,357.5 	"/>
	<polygon class="st3" points="968.5,357.7 986.2,341.8 995.9,357.5 	"/>
	<polygon class="st3" points="997.6,374.6 968.5,357.7 947.5,365.9 	"/>
	<polygon class="st3" points="917.5,360.7 935.6,347.1 947.5,365.9 	"/>
	<polygon class="st3" points="968.5,357.7 935.6,347.1 947.5,365.9 	"/>
	<polygon class="st3" points="957,336.7 935.6,347.1 926.1,331.4 	"/>
	<polygon class="st3" points="968.5,357.7 935.6,347.1 957,336.7 	"/>
	<polygon class="st3" points="986.2,341.8 957,336.7 968.5,357.7 	"/>
	<polygon class="st3" points="917.5,360.7 935.6,347.1 897.3,357.2 	"/>
	<polygon class="st3" points="901,341.1 935.6,347.1 926.1,331.4 	"/>
	<polygon class="st3" points="892.5,325.5 901,341.1 926.1,331.4 	"/>
	<polygon class="st3" points="897.3,357.2 877.3,353.7 901,341.1 	"/>
	<polygon class="st3" points="935.6,347.1 897.3,357.2 901,341.1 	"/>
	<polygon class="st3" points="877.3,353.7 857.5,335.2 858.7,350.5 	"/>
	<polygon class="st3" points="901,341.1 877.3,353.7 857.5,335.2 	"/>
	<polygon class="st3" points="892.5,325.5 870.6,321.7 901,341.1 	"/>
	<polygon class="st3" points="857.5,335.2 870.6,321.7 901,341.1 	"/>
	<polygon class="st3" points="836.5,346.6 858.7,350.5 857.5,335.2 	"/>
	<polygon class="st3" points="851.5,318.4 857.5,335.2 870.6,321.7 	"/>
	<polygon class="st3" points="851.5,318.4 836.5,346.6 857.5,335.2 	"/>
	<polygon class="st3" points="995.9,357.5 1014.4,346.7 986.2,341.8 	"/>
	<polygon class="st3" points="1020.9,364.8 995.9,357.5 1014.4,346.7 	"/>
	<polygon class="st3" points="836.5,346.6 824.4,327.7 851.5,318.4 	"/>
	<polygon class="st3" points="802.5,340.7 824.4,327.7 836.5,346.6 	"/>
	<polygon class="st3" points="831.2,314.9 824.4,327.7 851.5,318.4 	"/>
	<polygon class="st3" points="802.5,340.7 800.6,326.4 824.4,327.7 	"/>
	<polygon class="st3" points="780.9,320.1 802.5,340.7 800.6,326.4 	"/>
	<polygon class="st3" points="824.4,327.7 810.3,311.3 800.6,326.4 	"/>
	<polygon class="st3" points="831.2,314.9 810.3,311.3 824.4,327.7 	"/>
	<polygon class="st3" points="780.9,320.1 810.3,311.3 800.6,326.4 	"/>
	<polygon class="st3" points="802.5,340.7 780.9,320.1 766.3,334.4 	"/>
	<polygon class="st3" points="766.3,334.4 753,332.1 780.9,320.1 	"/>
	<polygon class="st3" points="761.4,314.2 753,332.1 780.9,320.1 	"/>
	<polygon class="st3" points="773.3,304.8 761.4,314.2 780.9,320.1 	"/>
	<polygon class="st3" points="734.6,298.1 773.3,304.8 761.4,314.2 	"/>
	<polygon class="st3" points="753,332.1 734.6,298.1 761.4,314.2 	"/>
	<polygon class="st3" points="734.6,298.1 723.9,310.5 753,332.1 	"/>
	<polygon class="st3" points="731.2,328.3 723.9,310.5 753,332.1 	"/>
	<polygon class="st3" points="723.9,310.5 731.2,328.3 702.1,323.2 	"/>
	<polygon class="st3" points="706.4,310.4 723.9,310.5 702.1,323.2 	"/>
	<polygon class="st3" points="683.5,320 706.4,310.4 702.1,323.2 	"/>
	<polygon class="st3" points="734.6,298.1 723.9,310.5 704.6,292.9 	"/>
	<polygon class="st3" points="706.4,310.4 723.9,310.5 704.6,292.9 	"/>
	<polygon class="st3" points="683.5,320 706.4,310.4 704.6,292.9 	"/>
	<polygon class="st3" points="679.6,288.5 674.1,305.4 704.6,292.9 	"/>
	<polygon class="st3" points="683.5,320 674.1,305.4 704.6,292.9 	"/>
	<polygon class="st3" points="683.5,320 674.1,305.4 650.3,314.2 	"/>
	<polygon class="st3" points="679.6,288.5 652.9,283.9 674.1,305.4 	"/>
	<polygon class="st3" points="650.3,314.2 655.5,298.6 674.1,305.4 	"/>
	<polygon class="st3" points="652.9,283.9 655.5,298.6 674.1,305.4 	"/>
	<polygon class="st3" points="625.4,279.1 652.9,283.9 633.2,296.6 	"/>
	<polygon class="st3" points="655.5,298.6 633.2,296.6 652.9,283.9 	"/>
	<polygon class="st3" points="650.3,314.2 633.2,296.6 655.5,298.6 	"/>
	<polygon class="st3" points="625.1,309.8 633.2,296.6 650.3,314.2 	"/>
	<polygon class="st3" points="1125.3,715.1 1103.3,718 1117.3,732.1 	"/>
	<polygon class="st3" points="1102.3,700.9 1125.3,715.1 1103.3,718 	"/>
	<polygon class="st3" points="1136.6,701.1 1125.3,715.1 1102.3,700.9 	"/>
	<polygon class="st3" points="1125.3,715.1 1161.1,716.8 1136.6,701.1 	"/>
	<polygon class="st3" points="1117.3,732.1 1155.3,731.7 1125.3,715.1 	"/>
	<polygon class="st3" points="1161.1,716.8 1155.3,731.7 1125.3,715.1 	"/>
	<polygon class="st3" points="1136.6,701.1 1155.5,701.2 1161.1,716.8 	"/>
	<polygon class="st3" points="1155.3,731.7 1171.2,727.9 1161.1,716.8 	"/>
	<polygon class="st3" points="1180.1,715.6 1161.1,716.8 1171.2,727.9 	"/>
	<polygon class="st3" points="1168.6,699.2 1161.1,716.8 1180.1,715.6 	"/>
	<polygon class="st3" points="1155.5,701.2 1168.6,699.2 1161.1,716.8 	"/>
	<polygon class="st3" points="1180.1,715.6 1180.9,706.8 1168.6,699.2 	"/>
	<polygon class="st3" points="1173.6,678.1 1168.6,699.2 1180.9,706.8 	"/>
	<polygon class="st3" points="1149.5,677.3 1155.5,701.2 1168.6,699.2 	"/>
	<polygon class="st3" points="1173.6,678.1 1149.5,677.3 1168.6,699.2 	"/>
	<polygon class="st3" points="1159.2,662.3 1149.5,677.3 1173.6,678.1 	"/>
	<polygon class="st3" points="1166.7,650.7 1159.2,662.3 1173.6,678.1 	"/>
	<polygon class="st3" points="1149.5,677.3 1145.3,660.7 1159.2,662.3 	"/>
	<polygon class="st3" points="1156,648.8 1145.3,660.7 1159.2,662.3 	"/>
	<polygon class="st3" points="1166.7,650.7 1156,648.8 1159.2,662.3 	"/>
	<polygon class="st3" points="1140.2,640.4 1145.3,660.7 1156,648.8 	"/>
	<polygon class="st3" points="1166.7,650.7 1149.8,636.7 1156,648.8 	"/>
	<polygon class="st3" points="1162.2,632.7 1149.8,636.7 1166.7,650.7 	"/>
	<polygon class="st3" points="1140.2,640.4 1149.8,636.7 1156,648.8 	"/>
	<polygon class="st3" points="1135.6,622.2 1140.2,640.4 1149.8,636.7 	"/>
	<polygon class="st3" points="1157.6,614.6 1149.8,636.7 1162.2,632.7 	"/>
	<polygon class="st3" points="1135.6,622.2 1149.8,636.7 1157.6,614.6 	"/>
	<polygon class="st3" points="580.8,324.6 587.2,340.7 562.6,348.4 	"/>
	<polygon class="st3" points="601.8,342.6 587.2,340.7 594.8,360.4 	"/>
	<polygon class="st3" points="773.3,304.8 780.9,320.1 810.3,311.3 	"/>
	<polygon class="st3" points="556.9,315.4 585.6,306.8 580.8,324.6 	"/>
	<polygon class="st3" points="587.2,340.7 595.2,304.6 601.8,342.6 	"/>
	<polygon class="st3" points="580.8,324.6 585.6,306.8 587.2,340.7 	"/>
	<polygon class="st3" points="595.2,304.6 585.6,306.8 587.2,340.7 	"/>
	<polygon class="st3" points="574.2,293 592.5,285.4 585.6,306.8 	"/>
	<polygon class="st3" points="595.2,304.6 592.5,285.4 585.6,306.8 	"/>
	<polygon class="st3" points="574.4,270.3 574.2,293 592.5,285.4 	"/>
	<polygon class="st3" points="605,275.6 592.5,285.4 574.4,270.3 	"/>
	<polygon class="st3" points="595.2,304.6 610.1,307.2 592.5,285.4 	"/>
	<polygon class="st3" points="605,275.6 592.5,285.4 610.1,307.2 	"/>
	<polygon class="st3" points="605,275.6 610.1,307.2 617.9,291.4 	"/>
	<polygon class="st3" points="625.1,309.8 610.1,307.2 617.9,291.4 	"/>
	<polygon class="st3" points="633.2,296.6 617.9,291.4 625.1,309.8 	"/>
	<polygon class="st3" points="625.4,279.1 617.9,291.4 633.2,296.6 	"/>
	<polygon class="st3" points="605,275.6 625.4,279.1 617.9,291.4 	"/>
	<polygon class="st3" points="1068.5,356.1 1083.9,362.2 1072.1,373.8 	"/>
	<polygon class="st3" points="1095.4,374 1072.1,373.8 1083.9,362.2 	"/>
	<polygon class="st3" points="1072.1,373.8 1090.9,393.6 1098.2,381 	"/>
	<polygon class="st3" points="1095.4,374 1072.1,373.8 1098.2,381 	"/>
	<polygon class="st3" points="1098.2,381 1101,390.9 1090.9,393.6 	"/>
	<polygon class="st3" points="1072.1,373.8 1076.4,388.3 1090.9,393.6 	"/>
	<polygon class="st3" points="1020.9,364.8 1026,379.6 997.6,374.6 	"/>
	<polygon class="st3" points="1014.4,346.7 1034.4,350.2 1020.9,364.8 	"/>
	<polygon class="st3" points="1026,379.6 1034.4,350.2 1020.9,364.8 	"/>
	<polygon class="st3" points="1041.7,367.7 1034.4,350.2 1026,379.6 	"/>
	<polygon class="st3" points="1051.3,353.1 1041.7,367.7 1034.4,350.2 	"/>
	<polygon class="st3" points="1045.7,383 1026,379.6 1041.7,367.7 	"/>
	<polygon class="st3" points="1057.6,373.7 1041.7,367.7 1051.3,353.1 	"/>
	<polygon class="st3" points="1068.5,356.1 1057.6,373.7 1051.3,353.1 	"/>
	<polygon class="st3" points="1045.7,383 1057.6,373.7 1041.7,367.7 	"/>
	<polygon class="st3" points="1068.5,356.1 1057.6,373.7 1072.1,373.8 	"/>
	<polygon class="st3" points="1076.4,388.3 1061.6,385.8 1057.6,373.7 	"/>
	<polygon class="st3" points="1072.1,373.8 1057.6,373.7 1076.4,388.3 	"/>
	<polygon class="st3" points="1045.7,383 1061.6,385.8 1057.6,373.7 	"/>
</g>
<g id="Capa_6">
	<polygon class="st3" points="547.4,283.8 542.5,290.3 562.2,273.2 	"/>
	<polygon class="st3" points="553.7,284.2 562.2,273.2 542.5,290.3 	"/>
	<polygon class="st3" points="554.5,301.6 553.7,284.2 542.5,290.3 	"/>
	<polygon class="st3" points="540.6,297.7 542.5,290.3 554.5,301.6 	"/>
	<polygon class="st3" points="547.4,304.7 540.6,297.7 554.5,301.6 	"/>
	<polygon class="st3" points="542.1,309.2 547.4,304.7 540.6,297.7 	"/>
	<polygon class="st3" points="554.5,301.6 556.9,315.4 547.4,304.7 	"/>
	<polygon class="st3" points="545.6,329.7 547.4,304.7 542.1,309.2 	"/>
	<polygon class="st3" points="556.9,315.4 545.6,329.7 547.4,304.7 	"/>
	<polygon class="st3" points="562.6,348.4 554.2,336.4 556.9,315.4 	"/>
	<polygon class="st3" points="571.1,397.9 552.9,372.4 562.6,348.4 	"/>
	<polygon class="st3" points="554.2,336.4 552.9,372.4 562.6,348.4 	"/>
	<polygon class="st3" points="545.6,329.7 556.9,315.4 554.2,336.4 	"/>
	<polygon class="st3" points="552.9,372.4 554.2,336.4 545.6,329.7 	"/>
	<polygon class="st3" points="552.9,372.4 557.9,401.8 571.1,397.9 	"/>
	<polygon class="st3" points="576.8,430.9 571.1,397.9 562,425.6 	"/>
	<polygon class="st3" points="582.9,465.8 570.9,477.6 576.8,430.9 	"/>
	<polygon class="st3" points="557.9,401.8 562,425.6 571.1,397.9 	"/>
	<polygon class="st3" points="570.9,477.6 576.8,430.9 562,425.6 	"/>
	<polygon class="st3" points="582.9,465.8 570.9,477.6 587,489.5 	"/>
	<polygon class="st3" points="596,541.9 581.8,541.8 587,489.5 	"/>
	<polygon class="st3" points="570.9,477.6 581.8,541.8 587,489.5 	"/>
	<polygon class="st3" points="622.5,695.2 627.1,711.4 613.7,719 	"/>
	<polygon class="st3" points="638.5,726 627.1,711.4 613.7,719 	"/>
	<polygon class="st3" points="652.9,734.2 638.5,726 638.3,742 	"/>
	<polygon class="st3" points="613.7,719 620.1,729 638.5,726 	"/>
	<polygon class="st3" points="638.3,742 638.5,726 627.5,736.4 	"/>
	<polygon class="st3" points="620.1,729 627.5,736.4 638.5,726 	"/>
	<polygon class="st3" points="652.9,734.2 667.9,736.7 666.4,744.8 	"/>
	<polygon class="st3" points="638.3,742 650.7,745 652.9,734.2 	"/>
	<polygon class="st3" points="666.4,744.8 650.7,745 652.9,734.2 	"/>
	<polygon class="st3" points="581.8,541.8 587.7,576 596,541.9 	"/>
	<polygon class="st3" points="602,576.2 587.7,576 596,541.9 	"/>
	<polygon class="st3" points="610.5,625.7 594.5,616 602,576.2 	"/>
	<polygon class="st3" points="587.7,576 594.5,616 602,576.2 	"/>
	<polygon class="st3" points="615.3,653.1 601.3,656 610.5,625.7 	"/>
	<polygon class="st3" points="594.5,616 601.3,656 610.5,625.7 	"/>
	<polygon class="st3" points="622.5,695.2 615.3,653.1 606,683.2 	"/>
	<polygon class="st3" points="613.7,719 610.1,707.6 622.5,695.2 	"/>
	<polygon class="st3" points="606,683.2 610.1,707.6 622.5,695.2 	"/>
	<polygon class="st3" points="601.3,656 615.3,653.1 606,683.2 	"/>
	<polygon class="st3" points="667.9,736.7 666.4,744.8 687.9,744.5 	"/>
	<polygon class="st3" points="701.2,736.3 667.9,736.7 687.9,744.5 	"/>
	<polygon class="st3" points="703.9,744.3 701.2,736.3 687.9,744.5 	"/>
	<polygon class="st3" points="730.6,743.9 703.9,744.3 701.2,736.3 	"/>
	<polygon class="st3" points="751.8,735.8 701.2,736.3 730.6,743.9 	"/>
	<polygon class="st3" points="754,743.6 730.6,743.9 751.8,735.8 	"/>
	<polygon class="st3" points="800.7,735.3 751.8,735.8 754,743.6 	"/>
	<polygon class="st3" points="795.5,743.1 800.7,735.3 754,743.6 	"/>
	<polygon class="st3" points="842.7,734.9 800.7,735.3 823.9,742.8 	"/>
	<polygon class="st3" points="795.5,743.1 800.7,735.3 823.9,742.8 	"/>
	<polygon class="st3" points="842.7,734.9 861.6,742.3 823.9,742.8 	"/>
	<polygon class="st3" points="865,734.7 842.7,734.9 861.6,742.3 	"/>
	<polygon class="st3" points="897.3,734.3 865,734.7 885.5,742 	"/>
	<polygon class="st3" points="861.6,742.3 865,734.7 885.5,742 	"/>
	<polygon class="st3" points="897.3,734.3 907.2,741.7 885.5,742 	"/>
	<polygon class="st3" points="923.3,734.1 897.3,734.3 907.2,741.7 	"/>
	<polygon class="st3" points="973.2,733.5 923.3,734.1 948.2,741.2 	"/>
	<polygon class="st3" points="907.2,741.7 923.3,734.1 948.2,741.2 	"/>
	<polygon class="st3" points="973.2,733.5 974.9,740.8 948.2,741.2 	"/>
	<polygon class="st3" points="1001.9,733.2 973.2,733.5 974.9,740.8 	"/>
	<polygon class="st3" points="1001.9,740.5 1001.9,733.2 974.9,740.8 	"/>
	<polygon class="st3" points="1029.4,740.1 1001.9,733.2 1001.9,740.5 	"/>
	<polygon class="st3" points="1033.3,732.9 1001.9,733.2 1029.4,740.1 	"/>
	<polygon class="st3" points="1057.8,732.7 1033.3,732.9 1029.4,740.1 	"/>
	<polygon class="st3" points="1082.5,739.5 1057.8,732.7 1029.4,740.1 	"/>
	<polygon class="st3" points="1089.1,732.3 1057.8,732.7 1082.5,739.5 	"/>
	<polygon class="st3" points="1117.3,732.1 1089.1,732.3 1103.1,739.2 	"/>
	<polygon class="st3" points="1082.5,739.5 1089.1,732.3 1103.1,739.2 	"/>
	<polygon class="st3" points="1117.3,732.1 1132.7,738.8 1103.1,739.2 	"/>
	<polygon class="st3" points="1155.3,731.7 1117.3,732.1 1132.7,738.8 	"/>
	<polygon class="st3" points="1171.2,727.9 1155.3,731.7 1154,736.3 	"/>
	<polygon class="st3" points="1132.7,738.8 1149,738.6 1155.3,731.7 	"/>
	<polygon class="st3" points="1154,736.3 1149,738.6 1155.3,731.7 	"/>
</g>
<g id="Capa_7">
	<circle class="st4" cx="835.7" cy="447.4" r="5.3"/>
	<circle class="st4" cx="774.8" cy="541.2" r="5.7"/>
	<circle class="st4" cx="886.4" cy="649.5" r="5.2"/>
	<circle class="st4" cx="989" cy="573.6" r="6.9"/>
	<circle class="st4" cx="1042" cy="515.5" r="4.1"/>
	<circle class="st4" cx="1038" cy="449.5" r="5.7"/>
	<circle class="st4" cx="940.1" cy="396.5" r="4.6"/>
	<circle class="st4" cx="995.9" cy="420.6" r="4.1"/>
	<circle class="st4" cx="685.6" cy="361.1" r="5"/>
	<circle class="st4" cx="817.5" cy="373.7" r="4.1"/>
	<circle class="st4" cx="727.3" cy="638.6" r="5.6"/>
	<circle class="st4" cx="787.8" cy="673.2" r="3.6"/>
	<circle class="st4" cx="668.1" cy="532.5" r="5.9"/>
	<circle class="st4" cx="690.6" cy="444.8" r="6.4"/>
	<circle class="st4" cx="648.2" cy="387.1" r="4.7"/>
	<circle class="st4" cx="866.4" cy="554.9" r="6.1"/>
	<circle class="st4" cx="971.6" cy="674.7" r="4.2"/>
	<circle class="st4" cx="1064.5" cy="685.6" r="5.3"/>
	<circle class="st4" cx="595.2" cy="304.6" r="3.3"/>
	<circle class="st4" cx="1072.1" cy="373.8" r="2.6"/>
	<circle class="st4" cx="820.9" cy="805.7" r="5.1"/>
	<circle class="st4" cx="856.2" cy="762.9" r="3.2"/>
	<circle class="st4" cx="861.7" cy="813.8" r="2.9"/>
	<circle class="st4" cx="901.7" cy="845.2" r="3.3"/>
	<circle class="st4" cx="925.8" cy="827.5" r="4.1"/>
	<circle class="st4" cx="782.1" cy="787.3" r="3.9"/>
	<circle class="st4" cx="771.3" cy="830.3" r="5"/>
	<circle class="st4" cx="934.9" cy="850.5" r="2.5"/>
	<circle class="st4" cx="1014.8" cy="840.2" r="3.1"/>
	<circle class="st4" cx="1045.5" cy="844.5" r="3.4"/>
	<circle class="st4" cx="880.8" cy="793.1" r="3.3"/>
	<circle class="st4" cx="810.3" cy="763.9" r="4.5"/>
	<circle class="st4" cx="1155.5" cy="701.2" r="3.7"/>
	<circle class="st4" cx="1155.3" cy="731.7" r="3.5"/>
	<circle class="st4" cx="638.5" cy="726" r="5.2"/>
	<circle class="st4" cx="636.8" cy="648.2" r="4.9"/>
	<circle class="st4" cx="602" cy="576.2" r="6.3"/>
	<circle class="st4" cx="562" cy="425.6" r="7.8"/>
	<circle class="st4" cx="553.7" cy="284.2" r="6.7"/>
	<circle class="st4" cx="594.8" cy="360.4" r="4.9"/>
	<circle class="st4" cx="606" cy="476.2" r="5.4"/>
	<circle class="st4" cx="857.5" cy="335.2" r="2.5"/>
	<circle class="st4" cx="780.9" cy="320.1" r="3"/>
	<circle class="st4" cx="683.5" cy="320" r="2.3"/>
	<circle class="st4" cx="926.1" cy="331.4" r="3"/>
	<circle class="st4" cx="968.5" cy="357.7" r="3.4"/>
	<circle class="st4" cx="1041.7" cy="367.7" r="2.5"/>
	<circle class="st4" cx="704.6" cy="292.9" r="4.4"/>
	<circle class="st4" cx="625.4" cy="279.1" r="3.5"/>
	<circle class="st4" cx="955.5" cy="723.6" r="3.9"/>
	<circle class="st4" cx="872.3" cy="699.7" r="3.4"/>
	<circle class="st4" cx="807.3" cy="719.6" r="3.9"/>
	<circle class="st4" cx="751.8" cy="735.8" r="4.5"/>
	<circle class="st4" cx="1103.3" cy="718" r="5.5"/>
	<circle class="st4" cx="1033.3" cy="717.4" r="5.3"/>
	<circle class="st4" cx="1141.4" cy="593.1" r="3.1"/>
	<circle class="st4" cx="1162.2" cy="632.7" r="4"/>
	<circle class="st4" cx="1145.3" cy="660.7" r="2.6"/>
	<circle class="st4" cx="1116.8" cy="497.8" r="3.7"/>
	<circle class="st4" cx="1116.8" cy="453.6" r="4.2"/>
	<circle class="st4" cx="1088.3" cy="435.4" r="3.6"/>
	<circle class="st4" cx="1029.4" cy="740.1" r="3.9"/>
	<circle class="st4" cx="1003.4" cy="700.4" r="4.5"/>
	<circle class="st4" cx="905" cy="719.1" r="4"/>
	<circle class="st4" cx="715.3" cy="698.9" r="6.4"/>
	<circle class="st4" cx="622.5" cy="695.2" r="4.1"/>
	<circle class="st4" cx="570.9" cy="477.6" r="6.3"/>
	<circle class="st4" cx="556.9" cy="315.4" r="5.2"/>
	<circle class="st4" cx="810.3" cy="311.3" r="4.2"/>
	<circle class="st4" cx="877.3" cy="353.7" r="4"/>
	<circle class="st4" cx="935.6" cy="347.1" r="3.1"/>
	<circle class="st4" cx="824.9" cy="699.5" r="4.2"/>
	<circle class="st4" cx="897.1" cy="759.8" r="3.2"/>
</g>
</svg>
