<?xml version="1.0" encoding="utf-8"?>
<!-- Generator: Adobe Illustrator 23.1.0, SVG Export Plug-In . SVG Version: 6.00 Build 0)  -->
<svg version="1.1" xmlns="http://www.w3.org/2000/svg" xmlns:xlink="http://www.w3.org/1999/xlink" x="0px" y="0px"
	 viewBox="0 0 841.9 595.3" style="enable-background:new 0 0 841.9 595.3;" xml:space="preserve">
<style type="text/css">
	.st0{fill:#ECEBEF;}
	.st1{fill:#CCCDCD;}
	.st2{fill:#DCDCDC;}
	.st3{fill:none;stroke:#949494;stroke-width:0.4252;stroke-linecap:round;stroke-linejoin:round;stroke-miterlimit:10;}
	.st4{fill:#A4A3A1;}
</style>
<g id="Capa_4">
	<polygon class="st0" points="293.4,355.7 302.9,338.3 306.8,323.9 319.8,319.5 337.1,309.7 348.7,304.8 362.4,309.7 370.5,321.7 
		369.3,331.4 360,320.5 352.9,316 338.2,323.9 315.8,342.7 	"/>
	<polygon class="st0" points="326.6,372.2 339.3,366.9 353,354.5 372.7,336.7 379.4,338.3 387.1,344.3 388.7,350.2 372.7,382.1 
		381,373 386.2,367.2 397.8,354.5 394.6,339.5 384.7,331.1 372.7,331.1 360,339.5 341.1,358 	"/>
	<polygon class="st0" points="357.6,395.8 358.8,408.3 391.5,378.1 393.8,367.2 386.2,367.2 381,373 372.7,382.1 	"/>
	<polygon class="st1" points="401.9,375.4 403.6,395.8 415.5,383.9 411.5,373.9 405.1,367.2 393.8,367.2 	"/>
	<polygon class="st1" points="391.5,418.3 398.7,435.5 418,439.7 431,430.5 416.4,430.5 406,427.4 399.8,416 403.6,395.8 	"/>
	<polygon class="st1" points="265.5,296.6 262.1,298.6 272.6,303.7 281.2,311.8 289.3,307.9 294.5,312.7 295.7,322.5 275.4,336.9 
		295.7,333 306.8,323.9 304.6,314.6 295.7,304.8 281,299.9 	"/>
	<polygon class="st2" points="349.5,165.4 343.1,182.3 340.6,199.2 336.9,211.2 346.1,194.1 	"/>
	<polygon class="st2" points="512.8,294.6 541.5,331.5 583.2,297.6 642.9,266.4 664.4,242 633,256.4 578.7,280.9 541.6,307.9 	"/>
	<polygon class="st2" points="402.6,319.5 405.1,367.2 411.5,373.9 415.5,383.9 427.9,408.3 435.5,420.4 452.5,423.6 465.3,414.7 
		468.1,405.9 459,403.8 442.5,405.9 432.1,389.5 427.9,380 421.2,369.8 	"/>
	<polygon class="st2" points="486.2,296 474,313.1 475.6,327.9 505.6,365.4 507.4,375.4 518.7,380 529.3,375.4 541.5,350.7 
		527.1,350 514.4,359.5 483.2,323.5 	"/>
	<polygon class="st0" points="304.6,314.6 306.8,323.9 319.8,319.5 337.1,309.7 326.6,306.1 	"/>
	<polygon class="st0" points="426.5,326 442.5,356.5 470.4,400.2 460.9,365.8 	"/>
	<polygon class="st1" points="505.6,377.8 478.9,392 467.6,371.5 460.9,365.8 470.4,400.2 482.7,403.8 505.6,390.4 	"/>
	<polygon class="st1" points="337.5,218.1 352.7,224.1 372.6,218.8 385.5,206.9 387.5,199.8 393.9,184 389.5,169.8 369.2,207 
		352.7,217.8 	"/>
	<polygon class="st0" points="359.3,156.9 364.8,171.3 355.3,187.3 348.1,206.9 352.7,217.8 337.5,218.1 336.9,211.2 346.1,194.1 
		349.5,165.4 	"/>
	<polygon class="st0" points="424.6,145.1 359.3,156.9 385.5,156.9 423.2,149.8 	"/>
	<polygon class="st2" points="424.6,165.4 389.5,169.8 393.9,184 387.5,199.8 405.9,194.1 422.4,202.7 453.3,225.8 474,246.6 
		495.9,270.8 501.1,256.2 512.8,251.6 503.9,237.1 476.7,214 444.8,194.4 428.6,180.2 	"/>
	<polygon class="st0" points="664.4,227.8 664.4,242 578.7,280.9 541.6,307.9 512.8,294.6 495.9,270.8 516.9,271.1 548.4,275.2 	"/>
	<polygon class="st2" points="424.6,145.1 423.2,149.8 448.1,164 505.3,176.7 448,156.9 	"/>
	<polygon class="st0" points="605.1,127.8 563.4,147.7 545.8,160.9 528.4,173.9 505.3,176.7 448,156.9 491.5,183.2 510.4,191.2 
		526.2,197.3 563.4,157.9 594.5,152.5 	"/>
	<polygon class="st2" points="575.4,199.2 533.9,209 526.2,197.3 505.3,176.7 	"/>
</g>
<g id="Capa_2">
	<polygon class="st3" points="146,143.5 152.2,179.5 190.1,186.2 	"/>
	<polygon class="st3" points="172.1,199.7 204.6,205.7 190.1,186.2 168.1,179.5 	"/>
	<polygon class="st3" points="105.8,183.2 123.6,179.5 123.6,158.2 	"/>
	<polygon class="st3" points="74,167.5 85.1,192.6 109.3,198.1 126.4,188.2 	"/>
	<polygon class="st3" points="214.5,198.1 227.2,217.8 252.1,241.5 239.9,201.1 	"/>
	<polygon class="st3" points="168.1,213.4 229.8,244.8 198.9,262.7 	"/>
	<polygon class="st3" points="636.9,170.4 655.8,152.5 691.8,134.7 678.2,152.5 	"/>
	<polygon class="st3" points="708.6,140.9 697.8,154.5 738.6,140.9 	"/>
	<polygon class="st3" points="675.4,191.4 700.6,173.9 718.2,185.4 712.6,220.7 	"/>
	<polygon class="st3" points="667.9,127.8 653.9,146.4 655.8,152.5 693.1,132.3 	"/>
	<polygon class="st3" points="629.6,134.7 646.2,115.1 632.9,118.5 	"/>
	<polygon class="st3" points="653.9,106 670.5,109 648.7,114.2 	"/>
	<polygon class="st3" points="571.9,173.9 563.4,187.3 625.5,187.3 611.9,154.5 	"/>
	<polygon class="st3" points="505.3,176.7 526.2,197.3 528.4,173.9 	"/>
	<polygon class="st3" points="605.1,127.8 594.5,152.5 545.8,160.9 563.4,147.7 	"/>
	<polygon class="st3" points="578.5,280.9 632.8,256.2 642.9,266.4 583.2,297.6 	"/>
	<polygon class="st3" points="563.4,256.2 618.5,245.2 632.8,256.2 578.5,280.9 	"/>
	<polygon class="st3" points="552.6,239.7 591.1,230.7 618.5,245.2 563.4,256.2 	"/>
	<polygon class="st3" points="526.2,197.3 563.4,187.3 575.4,210.4 541.5,220.7 	"/>
	<polygon class="st3" points="533.3,260 548.5,275.2 563.4,256.2 552.6,239.7 	"/>
	<polygon class="st3" points="578.5,280.9 548.5,275.2 563.4,256.2 	"/>
	<polygon class="st3" points="541.6,307.9 548.5,275.2 578.5,280.9 	"/>
	<polygon class="st3" points="541.5,331.5 541.6,307.9 578.5,280.9 583.2,297.6 	"/>
	<polygon class="st3" points="512.8,294.6 541.5,331.5 541.6,307.9 	"/>
	<polygon class="st3" points="516.8,270.8 533.3,260 537.3,242 501.1,256.2 	"/>
	<polygon class="st3" points="552.6,239.7 537.3,242 533.3,260 	"/>
	<polygon class="st3" points="541.5,220.7 524.1,230.7 537.3,242 552.6,239.7 	"/>
	<polygon class="st3" points="526.2,197.3 524.1,230.7 541.5,220.7 	"/>
	<polygon class="st3" points="505.3,176.7 524.1,230.7 526.2,197.3 	"/>
	<polygon class="st3" points="448,156.9 448.1,173.9 486.5,185.6 505.3,176.7 	"/>
	<polygon class="st3" points="444.8,194.1 486.5,185.6 448.1,173.9 	"/>
	<polygon class="st3" points="476.7,214 497.8,192.9 486.5,185.6 444.8,194.1 	"/>
	<polygon class="st3" points="524.1,230.7 476.7,214 497.8,192.9 	"/>
	<polygon class="st3" points="348.1,206.9 362.5,199.8 362.5,191.1 355.3,187.3 	"/>
	<polygon class="st3" points="336.9,211.2 348.1,206.9 355.3,187.3 346.1,194.1 	"/>
	<polygon class="st3" points="349.5,165.4 346.1,194.1 340.6,199.2 343.1,182.3 	"/>
	<polygon class="st3" points="336.9,211.2 340.6,199.2 346.1,194.1 	"/>
	<polygon class="st3" points="355.3,187.3 359.3,156.9 349.5,165.4 346.1,194.1 	"/>
	<polygon class="st3" points="362.5,191.1 364.8,171.3 359.3,156.9 355.3,187.3 	"/>
	<polygon class="st3" points="336.9,211.2 337.5,218.1 352.7,217.8 348.1,206.9 	"/>
	<polygon class="st3" points="362.5,199.8 369.2,206.9 352.7,217.8 348.1,206.9 	"/>
	<polygon class="st3" points="372.6,156.9 383.2,165.4 374.1,194.1 362.5,191.1 364.8,171.3 	"/>
	<polygon class="st3" points="359.3,156.9 372.6,156.9 364.8,171.3 	"/>
	<polygon class="st3" points="362.5,191.1 374.1,194.1 369.2,206.9 362.5,199.8 	"/>
	<polygon class="st3" points="383.2,165.4 389.5,169.8 374.1,194.1 	"/>
	<polygon class="st3" points="385.5,156.9 383.2,165.4 389.5,169.8 424.6,165.4 423.2,149.8 	"/>
	<polygon class="st3" points="372.6,156.9 385.5,156.9 383.2,165.4 	"/>
	<polygon class="st3" points="359.3,156.9 382.6,149.1 424.6,145.1 423.2,149.8 385.5,156.9 372.6,156.9 	"/>
	<polygon class="st3" points="424.6,165.4 411.6,179.8 428.6,179.8 	"/>
	<polygon class="st3" points="422.4,202.7 428.6,179.8 411.6,179.8 	"/>
	<polygon class="st3" points="405.9,194.1 411.6,179.8 422.4,202.7 	"/>
	<polygon class="st3" points="393.9,184 387.5,199.8 405.9,194.1 411.6,179.8 	"/>
	<polygon class="st3" points="389.5,169.8 424.6,165.4 411.6,179.8 393.9,184 	"/>
	<polygon class="st3" points="369.2,206.9 385.5,206.9 387.5,199.8 393.9,184 389.5,169.8 374.1,194.1 	"/>
	<polygon class="st3" points="372.6,218.8 385.5,206.9 369.2,206.9 	"/>
	<polygon class="st3" points="352.7,224.1 372.6,218.8 369.2,206.9 352.7,217.8 	"/>
	<polygon class="st3" points="337.5,218.1 352.7,224.1 352.7,217.8 	"/>
	<polygon class="st3" points="424.6,145.1 448,156.9 448.1,173.9 424.6,165.4 423.2,149.8 	"/>
	<polygon class="st3" points="428.6,179.8 444.8,194.1 448.1,173.9 424.6,165.4 	"/>
	<polygon class="st3" points="422.4,202.7 428.6,179.8 444.8,194.1 	"/>
	<polygon class="st3" points="476.7,214 422.4,202.7 444.8,194.1 	"/>
	<polygon class="st3" points="453.3,225.8 422.4,202.7 444.8,194.1 	"/>
	<polygon class="st3" points="474,246.6 476.7,214 453.3,225.8 	"/>
	<polygon class="st3" points="501.1,256.2 495.9,270.8 474,246.6 	"/>
	<polygon class="st3" points="476.7,214 474,246.6 501.1,256.2 	"/>
	<polygon class="st3" points="524.1,230.7 474,246.6 501.1,256.2 537.3,242 	"/>
	<polygon class="st3" points="512.8,294.6 507.4,286.1 578.5,280.9 541.6,307.9 	"/>
	<polygon class="st3" points="495.9,270.8 516.8,270.8 501.1,256.2 	"/>
	<polygon class="st3" points="541.6,307.9 516.8,270.8 495.9,270.8 507.4,286.1 512.8,294.6 	"/>
	<polygon class="st3" points="575.4,210.4 552.6,239.7 618.5,245.2 	"/>
	<polygon class="st3" points="528.4,173.9 545.8,160.9 571.9,173.9 	"/>
	<polygon class="st3" points="563.4,147.7 563.4,187.3 605.1,127.8 	"/>
	<polygon class="st3" points="642.9,218.7 591.1,230.7 583.2,297.6 	"/>
	<polygon class="st3" points="664.4,242 632.8,256.2 642.9,266.4 	"/>
	<polygon class="st3" points="533.9,209 625.5,187.3 652.8,194.1 642.9,218.7 591.1,230.7 	"/>
	<polygon class="st3" points="673.5,204.1 653.9,216.6 712.6,220.7 	"/>
	<polygon class="st3" points="319.8,319.5 337.1,309.7 337.1,318.7 	"/>
	<polygon class="st3" points="348.7,304.8 352.9,316 337.1,318.7 337.1,309.7 	"/>
	<polygon class="st3" points="362.4,309.7 360,320.5 352.9,316 348.7,304.8 	"/>
	<polygon class="st3" points="370.5,321.7 360,320.5 362.4,309.7 	"/>
	<polygon class="st3" points="369.3,331.4 360,320.5 370.5,321.7 	"/>
	<polygon class="st3" points="347.7,333 360,320.5 369.3,331.4 360,339.5 	"/>
	<polygon class="st3" points="338.2,323.9 352.9,316 360,320.5 347.7,333 	"/>
	<polygon class="st3" points="337.1,318.7 338.2,323.9 352.9,316 	"/>
	<polygon class="st3" points="319.8,319.5 302.9,338.3 338.2,323.9 337.1,318.7 	"/>
	<polygon class="st3" points="347.7,333 321.9,361.2 326.6,372.2 360,339.5 	"/>
	<polygon class="st3" points="302.9,365.2 299.4,378.1 326.6,372.2 321.9,361.2 	"/>
	<polygon class="st3" points="338.2,323.9 302.9,365.2 321.9,361.2 347.7,333 	"/>
	<polygon class="st3" points="302.9,338.3 293.4,355.7 315.8,342.7 	"/>
	<polygon class="st3" points="338.2,323.9 315.8,342.7 302.9,338.3 	"/>
	<polygon class="st3" points="302.9,365.2 293.4,355.7 286,359.4 299.4,378.1 	"/>
	<polygon class="st3" points="286,344.5 293.4,355.7 286,359.4 	"/>
	<polygon class="st3" points="295.7,333 302.9,338.3 293.4,355.7 286,344.5 	"/>
	<polygon class="st3" points="306.8,323.9 295.7,333 302.9,338.3 	"/>
	<polygon class="st3" points="304.6,314.6 306.8,323.9 319.8,319.5 	"/>
	<polygon class="st3" points="372.7,336.7 372.7,331.1 384.7,331.1 379.4,338.3 	"/>
	<polygon class="st3" points="394.6,339.5 387.1,344.3 379.4,338.3 384.7,331.1 	"/>
	<polygon class="st3" points="388.7,350.2 397.8,354.5 394.6,339.5 387.1,344.3 	"/>
	<polygon class="st3" points="357.6,386.9 388.7,350.2 397.8,354.5 372.7,382.1 357.6,395.8 	"/>
	<polygon class="st3" points="349.1,386.8 343.6,401.2 357.6,395.8 357.6,386.9 	"/>
	<polygon class="st3" points="338.2,375.9 333.1,395.8 343.6,401.2 349.1,386.8 	"/>
	<polygon class="st3" points="324.4,383.9 333.1,395.8 338.2,375.9 339.3,366.9 	"/>
	<polygon class="st3" points="326.6,372.2 324.4,383.9 339.3,366.9 	"/>
	<polygon class="st3" points="372.7,336.7 372.7,331.1 360,339.5 326.6,372.2 339.3,366.9 	"/>
	<polygon class="st3" points="338.2,375.9 379.4,338.3 349.1,386.8 	"/>
	<path class="st3" d="M387.1,344.3l-29.5,42.6L387.1,344.3z"/>
	<line class="st3" x1="341.1" y1="358" x2="387.1" y2="344.3"/>
	<polygon class="st3" points="357.6,395.8 358.8,408.3 391.5,378.1 381,373 372.7,382.1 	"/>
	<polygon class="st3" points="391.5,378.1 381,373 386.2,367.2 	"/>
	<polygon class="st3" points="393.8,367.2 386.2,367.2 391.5,378.1 	"/>
	<polygon class="st3" points="401.9,375.4 391.5,378.1 393.8,367.2 	"/>
	<polygon class="st3" points="411.5,373.9 401.9,375.4 393.8,367.2 405.1,367.2 	"/>
	<polygon class="st3" points="403.6,395.8 395.5,389.5 391.5,378.1 401.9,375.4 	"/>
	<polygon class="st3" points="369.1,418.1 358.8,408.3 393.8,402.1 	"/>
	<polygon class="st3" points="395.5,389.5 369.1,418.1 393.8,402.1 	"/>
	<polygon class="st3" points="403.6,395.8 393.8,402.1 395.5,389.5 	"/>
	<polygon class="st3" points="369.1,418.1 382.3,423.6 391.5,418.3 393.8,402.1 	"/>
	<polygon class="st3" points="403.6,395.8 391.5,418.3 393.8,402.1 	"/>
	<polygon class="st3" points="408.1,407.1 391.5,418.3 403.6,395.8 	"/>
	<polygon class="st3" points="411.5,412.8 391.5,418.3 408.1,407.1 	"/>
	<polygon class="st3" points="415.5,383.9 408.1,407.1 411.5,412.8 427.9,408.3 	"/>
	<polygon class="st3" points="398.7,435.5 414.2,418.3 411.5,412.8 391.5,418.3 	"/>
	<polygon class="st3" points="418,439.7 398.7,435.5 414.2,418.3 	"/>
	<polygon class="st3" points="431,430.5 414.2,418.3 418,439.7 	"/>
	<polygon class="st3" points="427.9,408.3 435.5,420.4 431,430.5 414.2,418.3 	"/>
	<polygon class="st3" points="415.5,383.9 403.6,395.8 408.1,407.1 	"/>
	<polygon class="st3" points="411.5,373.9 401.9,375.4 403.6,395.8 415.5,383.9 	"/>
	<polygon class="st3" points="190.1,155.2 240.6,186.2 233.3,155.2 	"/>
	<polygon class="st3" points="289.8,189.8 233.3,155.2 240.6,186.2 	"/>
	<polygon class="st3" points="247.5,206.9 282.2,227.7 298.8,224.1 259.1,183.2 240.6,186.2 	"/>
	<polygon class="st3" points="289.8,189.8 298.8,224.1 259.1,183.2 	"/>
	<polygon class="st3" points="337.5,218.1 298.8,224.1 289.8,189.8 	"/>
	<polygon class="st3" points="323.8,251.7 298.8,224.1 289.8,189.8 	"/>
	<polygon class="st3" points="282.2,227.7 282.2,242.5 323.8,251.7 	"/>
	<polygon class="st3" points="259.1,262.7 282.2,242.5 253.8,233.7 	"/>
	<polygon class="st3" points="301.1,264.4 282.2,242.5 259.1,262.7 	"/>
	<polygon class="st3" points="229.8,244.8 233.3,262.7 259.1,262.7 	"/>
	<polygon class="st3" points="259.1,292.4 250.8,274.2 233.3,262.7 229.8,277.5 	"/>
	<polygon class="st3" points="198.9,262.7 229.8,277.5 233.3,262.7 211.2,248.2 196.9,244.8 	"/>
	<polygon class="st3" points="259.1,262.7 280.1,276 250.8,274.2 	"/>
	<polygon class="st3" points="323.8,251.7 365.2,264.4 372.6,306.8 	"/>
	<polygon class="st3" points="406,286.6 372.6,306.8 365.2,264.4 	"/>
	<polygon class="st3" points="419.2,269.3 352.7,224.1 365.2,264.4 406,286.6 	"/>
	<polygon class="st3" points="453.3,225.8 428.6,255.4 405.9,194.1 422.4,202.7 	"/>
	<polygon class="st3" points="372.6,218.8 381.8,236.2 428.6,255.4 453.3,225.8 	"/>
	<polygon class="st3" points="352.7,224.1 381.8,236.2 372.6,218.8 	"/>
	<polygon class="st3" points="428.6,255.4 419.2,269.3 465,296 476.7,273.8 	"/>
	<polygon class="st3" points="495.9,270.8 476.7,273.8 428.6,255.4 453.3,225.8 474,246.6 	"/>
	<polygon class="st3" points="465,296 453.3,225.8 474,246.6 476.7,273.8 	"/>
	<polygon class="st3" points="465,296 486.2,296 476.7,273.8 	"/>
	<polygon class="st3" points="406,286.6 442.5,313.1 465,296 	"/>
	<polygon class="st3" points="442.5,313.1 465,296 474,313.1 475.6,327.9 467.1,342.8 	"/>
	<polygon class="st3" points="486.2,296 516.8,330 474,313.1 	"/>
	<polygon class="st3" points="475.6,327.9 505.6,365.4 494.2,377.8 467.1,342.8 	"/>
	<polygon class="st3" points="457.3,352.8 467.1,342.8 494.2,377.8 478.9,392 	"/>
	<polygon class="st3" points="470.4,400.2 478.9,392 457.3,352.8 	"/>
	<polygon class="st3" points="505.6,390.4 470.4,400.2 482.7,403.8 	"/>
	<polygon class="st3" points="475.6,327.9 482.7,403.8 505.6,365.4 	"/>
	<polygon class="st3" points="505.6,390.4 505.6,365.4 494.2,377.8 	"/>
	<polygon class="st3" points="516.8,330 527.1,350 514.4,359.5 	"/>
	<polygon class="st3" points="518.7,380 529.3,375.4 514.4,359.5 	"/>
	<polygon class="st3" points="507.4,375.4 518.7,380 514.4,359.5 	"/>
	<polygon class="st3" points="541.5,350.7 527.1,350 514.4,359.5 529.3,375.4 	"/>
	<polygon class="st3" points="538.7,327.9 527.1,350 541.5,350.7 	"/>
	<polygon class="st3" points="474,313.1 514.4,359.5 507.4,375.4 505.6,365.4 475.6,327.9 	"/>
	<polygon class="st3" points="280.1,276 348.7,304.8 301.1,264.4 259.1,262.7 	"/>
	<polygon class="st3" points="372.6,306.8 301.1,264.4 309.9,288.6 	"/>
	<polygon class="st3" points="442.5,313.1 372.6,306.8 402.6,319.5 	"/>
	<polygon class="st3" points="438,362.6 442.5,356.5 402.6,319.5 	"/>
	<polygon class="st3" points="457.3,352.8 406,286.6 442.5,356.5 470.4,400.2 	"/>
	<polygon class="st3" points="438,362.6 468.1,405.9 470.4,400.2 442.5,356.5 	"/>
	<polygon class="st3" points="442.5,405.9 452.5,423.6 465.3,414.7 459,403.8 	"/>
	<polygon class="st3" points="468.1,405.9 465.3,414.7 459,403.8 	"/>
	<polygon class="st3" points="435.5,420.4 452.5,423.6 442.5,405.9 	"/>
	<polygon class="st3" points="405.1,367.2 411.5,373.9 438,362.6 	"/>
	<polygon class="st3" points="427.9,408.3 415.5,383.9 427.9,380 432.1,389.5 	"/>
	<polygon class="st3" points="442.5,405.9 435.5,420.4 427.9,408.3 432.1,389.5 	"/>
	<polygon class="st3" points="427.9,380 421.2,369.8 411.5,373.9 415.5,383.9 	"/>
	<polygon class="st3" points="432.1,389.5 427.9,380 421.2,369.8 438,362.6 	"/>
	<polygon class="st3" points="402.6,319.5 405.1,367.2 438,362.6 	"/>
	<polygon class="st3" points="275.4,336.9 295.7,333 272.6,321.7 	"/>
	<polygon class="st3" points="295.7,322.5 272.6,321.7 295.7,333 	"/>
	<polygon class="st3" points="294.5,312.7 281.2,311.8 272.6,321.7 295.7,322.5 	"/>
	<path class="st3" d="M264.4,311.8c0,0,2.5,21.1,2.7,21.5s8.2,3.6,8.2,3.6l-2.7-15.2L264.4,311.8z"/>
	<polygon class="st3" points="257,316 267.1,333.3 264.4,311.8 	"/>
	<polygon class="st3" points="255.8,304.8 264.4,311.8 257,316 	"/>
	<polygon class="st3" points="281,299.9 295.7,304.8 281.2,311.8 272.6,321.7 264.4,311.8 272.6,303.7 	"/>
	<polygon class="st3" points="294.5,312.7 295.7,304.8 281.2,311.8 	"/>
	<polygon class="st3" points="304.6,314.6 295.7,304.8 294.5,312.7 	"/>
	<polygon class="st3" points="295.7,322.5 306.8,323.9 304.6,314.6 	"/>
	<polygon class="st3" points="264.4,311.8 262.1,298.6 265.5,296.6 281,299.9 272.6,303.7 	"/>
	<polygon class="st3" points="255.8,304.8 259.1,292.4 265.5,296.6 262.1,298.6 264.4,311.8 	"/>
	<polygon class="st3" points="282.2,292.4 250.8,274.2 259.1,292.4 265.5,296.6 281,299.9 	"/>
	<polygon class="st3" points="259.1,262.7 265.5,296.6 259.1,292.4 250.8,274.2 	"/>
	<polygon class="st3" points="282.2,292.4 315,302.1 295.7,304.8 	"/>
	<polygon class="st3" points="337.1,309.7 315,302.1 295.7,304.8 304.6,314.6 319.8,319.5 	"/>
	<polygon class="st3" points="252.1,125.4 272,145.1 325.6,156.9 323.8,151 268,125.4 	"/>
	<polygon class="st3" points="319.5,170.7 332.7,172.6 325.6,156.9 312.4,159.5 	"/>
	<polygon class="st3" points="259.1,183.2 319.5,170.7 332.7,172.6 336.9,187.3 	"/>
	<polygon class="st3" points="323.8,151 359.3,156.9 349.5,165.4 325.6,156.9 	"/>
	<polygon class="st3" points="424.6,145.1 406,141.2 323.8,151 359.3,156.9 	"/>
	<polygon class="st3" points="336.9,187.3 325.6,210.9 336.9,211.2 340.6,199.2 	"/>
	<polygon class="st3" points="563.4,147.7 571.9,167.4 563.4,187.3 	"/>
	<polygon class="st3" points="575.4,210.4 550.1,227.8 618.5,245.2 	"/>
	<polygon class="st3" points="211.2,248.2 205.8,226.5 236.4,228.4 	"/>
</g>
<g id="Capa_3">
	<circle class="st4" cx="365.2" cy="264.4" r="3.3"/>
	<circle class="st4" cx="282.2" cy="242.5" r="4"/>
	<circle class="st4" cx="301.1" cy="264.4" r="1.9"/>
	<circle class="st4" cx="323.8" cy="251.7" r="1.9"/>
	<circle class="st4" cx="233.3" cy="262.7" r="2.3"/>
	<circle class="st4" cx="198.9" cy="262.7" r="2.3"/>
	<circle class="st4" cx="196.9" cy="244.8" r="2"/>
	<circle class="st4" cx="229.8" cy="244.8" r="3.3"/>
	<circle class="st4" cx="253.8" cy="233.7" r="3.7"/>
	<circle class="st4" cx="190.1" cy="186.2" r="1.9"/>
	<circle class="st4" cx="190.1" cy="155.2" r="3.8"/>
	<circle class="st4" cx="126.4" cy="188.2" r="2.9"/>
	<circle class="st4" cx="268" cy="125.4" r="2.8"/>
	<circle class="st4" cx="323.8" cy="151" r="5.4"/>
	<circle class="st4" cx="424.6" cy="145.1" r="2"/>
	<circle class="st4" cx="406" cy="141.2" r="1.6"/>
	<circle class="st4" cx="448.1" cy="156.9" r="2.8"/>
	<circle class="st4" cx="505.3" cy="176.7" r="4.2"/>
	<circle class="st4" cx="563.4" cy="187.3" r="2.6"/>
	<circle class="st4" cx="712.6" cy="220.7" r="2.5"/>
	<circle class="st4" cx="505.6" cy="390.4" r="3.3"/>
	<circle class="st4" cx="507.4" cy="375.4" r="1.9"/>
	<circle class="st4" cx="465.3" cy="414.7" r="2.8"/>
	<circle class="st4" cx="435.5" cy="420.4" r="2.9"/>
	<circle class="st4" cx="391.5" cy="418.3" r="3.5"/>
	<circle class="st4" cx="357.6" cy="395.8" r="3"/>
	<circle class="st4" cx="286" cy="359.4" r="3.1"/>
	<circle class="st4" cx="326.6" cy="372.2" r="1.8"/>
	<circle class="st4" cx="275.4" cy="336.9" r="2.6"/>
	<circle class="st4" cx="257" cy="316" r="2.1"/>
	<circle class="st4" cx="259.1" cy="292.4" r="3"/>
	<circle class="st4" cx="295.7" cy="304.8" r="2.9"/>
	<circle class="st4" cx="281" cy="299.9" r="2.2"/>
	<circle class="st4" cx="358.8" cy="298.6" r="3.1"/>
	<circle class="st4" cx="372.6" cy="306.8" r="3.4"/>
	<circle class="st4" cx="309.9" cy="288.6" r="1.3"/>
	<circle class="st4" cx="329.9" cy="269.9" r="1.4"/>
	<circle class="st4" cx="357.6" cy="272.3" r="1.2"/>
	<circle class="st4" cx="406" cy="298.6" r="1.5"/>
	<circle class="st4" cx="406" cy="286.6" r="2.8"/>
	<circle class="st4" cx="425.2" cy="331.4" r="1.4"/>
	<circle class="st4" cx="408.8" cy="230.3" r="1.1"/>
	<circle class="st4" cx="428.6" cy="255.4" r="2.7"/>
	<circle class="st4" cx="476.7" cy="273.8" r="1.9"/>
	<circle class="st4" cx="474" cy="246.6" r="1.6"/>
	<circle class="st4" cx="472.9" cy="197.3" r="1.1"/>
	<circle class="st4" cx="521.5" cy="239.7" r="1.3"/>
	<circle class="st4" cx="548.5" cy="275.2" r="2.3"/>
	<circle class="st4" cx="563.4" cy="256.2" r="1.2"/>
	<circle class="st4" cx="569.4" cy="245.8" r="0.9"/>
	<circle class="st4" cx="599.4" cy="219.6" r="1.1"/>
	<circle class="st4" cx="605.1" cy="93.2" r="3.5"/>
	<circle class="st4" cx="247.5" cy="206.9" r="1.9"/>
	<circle class="st4" cx="282.2" cy="227.7" r="1.7"/>
	<circle class="st4" cx="333.1" cy="232.1" r="2.4"/>
	<circle class="st4" cx="338.6" cy="218.6" r="2"/>
	<circle class="st4" cx="352.7" cy="224.1" r="1.6"/>
	<circle class="st4" cx="323.8" cy="202.7" r="1.2"/>
	<circle class="st4" cx="321.9" cy="192.1" r="1.4"/>
	<circle class="st4" cx="289.8" cy="189.8" r="2.3"/>
	<circle class="st4" cx="405.9" cy="194.1" r="2.9"/>
	<circle class="st4" cx="418.9" cy="229.2" r="1.5"/>
	<circle class="st4" cx="349.5" cy="165.4" r="3.6"/>
	<circle class="st4" cx="359.3" cy="156.9" r="1.3"/>
	<circle class="st4" cx="495.9" cy="270.8" r="2.1"/>
	<circle class="st4" cx="501.1" cy="256.2" r="4.2"/>
	<circle class="st4" cx="486.2" cy="296" r="2.6"/>
	<circle class="st4" cx="465" cy="296" r="2.1"/>
	<circle class="st4" cx="468.1" cy="321.7" r="2.2"/>
	<circle class="st4" cx="442.5" cy="313.1" r="2.6"/>
	<circle class="st4" cx="457.3" cy="352.8" r="3.6"/>
	<circle class="st4" cx="505.6" cy="365.4" r="2"/>
	<circle class="st4" cx="516.8" cy="330" r="2.5"/>
	<circle class="st4" cx="538.7" cy="327.9" r="3.6"/>
	<circle class="st4" cx="347.7" cy="374" r="1.3"/>
	<circle class="st4" cx="349.6" cy="342.7" r="1.5"/>
	<circle class="st4" cx="284.2" cy="317.1" r="1"/>
	<circle class="st4" cx="309.9" cy="306.8" r="1.3"/>
	<circle class="st4" cx="195.4" cy="214.8" r="1.5"/>
	<circle class="st4" cx="591" cy="276.9" r="2.9"/>
	<circle class="st4" cx="637.5" cy="280.7" r="2"/>
	<circle class="st4" cx="659" cy="283.7" r="2.9"/>
	<circle class="st4" cx="674.2" cy="268.4" r="3.1"/>
	<circle class="st4" cx="696.5" cy="262.4" r="2.1"/>
	<circle class="st4" cx="403" cy="205.9" r="2.2"/>
	<circle class="st4" cx="263.3" cy="126.5" r="1.8"/>
	<circle class="st4" cx="216.8" cy="117.3" r="1.9"/>
	<circle class="st4" cx="172.2" cy="218.8" r="1.9"/>
	<circle class="st4" cx="211.3" cy="216.6" r="2.2"/>
	<circle class="st4" cx="712" cy="166.8" r="1.7"/>
	<circle class="st4" cx="683.1" cy="162.8" r="2.1"/>
	<circle class="st4" cx="693.8" cy="160.7" r="1.6"/>
	<circle class="st4" cx="701.1" cy="145.7" r="2"/>
	<circle class="st4" cx="671.4" cy="154.6" r="1.5"/>
	<circle class="st4" cx="666.1" cy="162.3" r="2.8"/>
	<circle class="st4" cx="703.8" cy="185" r="2"/>
	<circle class="st4" cx="677.3" cy="208.7" r="1.5"/>
	<circle class="st4" cx="657.9" cy="200.3" r="1.9"/>
	<circle class="st4" cx="656.8" cy="212.1" r="1.2"/>
	<circle class="st4" cx="672" cy="190.1" r="1.9"/>
	<circle class="st4" cx="685.2" cy="185" r="1.1"/>
	<circle class="st4" cx="372.8" cy="147" r="1.4"/>
	<circle class="st4" cx="459" cy="275.7" r="2"/>
	<circle class="st4" cx="387.1" cy="227.9" r="2.4"/>
	<circle class="st4" cx="146.9" cy="172.5" r="3.8"/>
	<circle class="st4" cx="181.9" cy="173.7" r="2.6"/>
	<circle class="st4" cx="166.1" cy="181.8" r="4.2"/>
	<circle class="st4" cx="172.2" cy="194.2" r="1.9"/>
	<circle class="st4" cx="138.1" cy="191.2" r="2"/>
	<circle class="st4" cx="149.6" cy="186.3" r="1.9"/>
	<circle class="st4" cx="138.1" cy="209.9" r="3.9"/>
	<circle class="st4" cx="156.1" cy="208.2" r="2.1"/>
	<circle class="st4" cx="174.1" cy="212.3" r="2"/>
	<circle class="st4" cx="737.8" cy="173.7" r="2.7"/>
	<circle class="st4" cx="728.1" cy="205.1" r="2.1"/>
	<circle class="st4" cx="739.1" cy="194.2" r="1.1"/>
	<circle class="st4" cx="707.1" cy="203.3" r="1.9"/>
	<circle class="st4" cx="147.8" cy="162.8" r="1.9"/>
	<circle class="st4" cx="131.9" cy="162.1" r="1.6"/>
	<circle class="st4" cx="134.9" cy="166.7" r="0.5"/>
	<circle class="st4" cx="158.2" cy="151.8" r="1.9"/>
	<circle class="st4" cx="212" cy="149.8" r="1.8"/>
	<circle class="st4" cx="216.8" cy="151.1" r="2.2"/>
	<circle class="st4" cx="409.8" cy="327.9" r="1.7"/>
	<circle class="st4" cx="348.5" cy="371.2" r="2.7"/>
	<circle class="st4" cx="422.4" cy="252.6" r="2.1"/>
	<circle class="st4" cx="450.9" cy="340.9" r="4.1"/>
	<circle class="st4" cx="612.5" cy="189.4" r="1.8"/>
	<circle class="st4" cx="621.8" cy="196.3" r="1.4"/>
	<circle class="st4" cx="633.6" cy="190" r="2"/>
	<circle class="st4" cx="648" cy="197.7" r="1.5"/>
	<circle class="st4" cx="618.3" cy="214.5" r="1.7"/>
	<circle class="st4" cx="603.9" cy="202.2" r="2.1"/>
	<circle class="st4" cx="383.2" cy="254.2" r="2.7"/>
	<circle class="st4" cx="707.2" cy="282.7" r="1.9"/>
	<circle class="st4" cx="644.7" cy="151" r="1.6"/>
	<circle class="st4" cx="632.4" cy="139.2" r="2.4"/>
	<circle class="st4" cx="647.9" cy="136.8" r="1.9"/>
	<circle class="st4" cx="671.6" cy="137.7" r="2.2"/>
	<circle class="st4" cx="688.5" cy="140.5" r="1.9"/>
	<circle class="st4" cx="628.6" cy="171.9" r="1.5"/>
	<circle class="st4" cx="632.9" cy="166.3" r="1.4"/>
	<circle class="st4" cx="567.6" cy="296.6" r="3.8"/>
	<circle class="st4" cx="256.2" cy="119.2" r="0.9"/>
	<circle class="st4" cx="266" cy="110.4" r="2.4"/>
	<circle class="st4" cx="251.7" cy="94.2" r="2.3"/>
	<circle class="st4" cx="213.8" cy="101.4" r="2.5"/>
	<circle class="st4" cx="224.5" cy="94.2" r="2.3"/>
	<circle class="st4" cx="201" cy="218.8" r="1.9"/>
	<circle class="st4" cx="249.3" cy="151.1" r="2.2"/>
	<circle class="st4" cx="689.3" cy="194.2" r="1.8"/>
	<circle class="st4" cx="668.9" cy="180.8" r="1.6"/>
</g>
</svg>
